<?xml version="1.0" standalone="no"?><!DOCTYPE svg PUBLIC "-//W3C//DTD SVG 1.1//EN" "http://www.w3.org/Graphics/SVG/1.1/DTD/svg11.dtd"><svg t="1639406865370" class="icon" viewBox="0 0 1024 1024" version="1.1" xmlns="http://www.w3.org/2000/svg" p-id="8260" xmlns:xlink="http://www.w3.org/1999/xlink" width="200" height="200"><defs><style type="text/css"></style></defs><path d="M14.169 239.054h586.288v587.688H14.169z" fill="#52A3CB" p-id="8261"></path><path d="M614.626 840.912H0V224.885h614.626v616.027zM28.333 812.584h557.96V253.223H28.333v559.361z" fill="#222323" p-id="8262"></path><path d="M231.007 249.158v192.751l17.338-46.253 42.13 46.253 24.788-41.095 34.679 41.095 12.391-41.095 34.68 41.095V249.158z" fill="#F2BA21" p-id="8263"></path><path d="M231.007 456.078c-0.833 0-1.677-0.074-2.526-0.223a14.168 14.168 0 0 1-11.643-13.946V249.158c0-7.812 6.347-14.159 14.169-14.159h166.005c7.817 0 14.164 6.347 14.164 14.159v192.751c0 5.944-3.709 11.25-9.297 13.32-5.535 1.953-11.86 0.372-15.697-4.171l-17.836-21.131-4.851 16.079c-1.491 4.978-5.604 8.746-10.677 9.775-5.073 0.998-10.348-0.732-13.708-4.723l-21.933-26.003-14.567 24.167a14.24 14.24 0 0 1-10.757 6.782c-4.298 0.372-8.836-1.221-11.86-4.532l-26.523-29.145-9.202 24.57c-2.101 5.604-7.434 9.181-13.261 9.181z m17.338-74.591c3.948 0 7.764 1.656 10.475 4.606l29.331 32.244 14.976-24.825a14.254 14.254 0 0 1 11.012-6.824c4.924-0.478 9 1.549 11.951 4.978l17.836 21.142 4.85-16.09a14.135 14.135 0 0 1 10.683-9.775c5.126-0.955 10.327 0.775 13.707 4.723l9.68 11.473V263.327H245.171v118.531c0.165-0.042 0.334-0.075 0.499-0.117 0.886-0.18 1.788-0.254 2.675-0.254z" fill="#222323" p-id="8264"></path><path d="M379.67 624.408h115.613" fill="#F2BA21" p-id="8265"></path><path d="M495.283 638.576H379.67c-7.817 0-14.164-6.346-14.164-14.168s6.347-14.17 14.164-14.17h115.612c7.822 0 14.169 6.348 14.169 14.17s-6.346 14.168-14.168 14.168z" fill="#222323" p-id="8266"></path><path d="M379.67 682.654h57.844" fill="#F2BA21" p-id="8267"></path><path d="M437.514 696.824H379.67c-7.817 0-14.164-6.348-14.164-14.17s6.347-14.168 14.164-14.168h57.843c7.822 0 14.169 6.346 14.169 14.168s-6.346 14.17-14.168 14.17z" fill="#222323" p-id="8268"></path><path d="M813.422 263.624c0 90.639-73.445 164.084-164.01 164.084-90.603 0-164.085-73.445-164.085-164.084 0-90.607 73.482-164.052 164.085-164.052 90.565 0 164.01 73.445 164.01 164.052z" fill="#F2BA21" p-id="8269"></path><path d="M649.412 441.877c-98.292 0-178.254-79.983-178.254-178.253 0-98.281 79.962-178.221 178.254-178.221 98.259 0 178.179 79.94 178.179 178.221 0 98.27-79.92 178.253-178.179 178.253z m0-328.136c-82.669 0-149.921 67.247-149.921 149.883 0 82.668 67.252 149.916 149.921 149.916 82.636 0 149.846-67.247 149.846-149.916 0-82.636-67.21-149.883-149.846-149.883z" fill="#222323" p-id="8270"></path><path d="M997.65 570.885c16.604 16.599 16.604 43.494 0 60.094-16.6 16.598-43.526 16.598-60.094 0l-96.832-96.838c-16.604-16.6-16.604-43.494 0-60.094 16.578-16.6 43.531-16.6 60.094 0l96.832 96.838z" fill="#52A3CB" p-id="8271"></path><path d="M967.588 657.607c-15.146 0-29.362-5.902-40.061-16.633l-96.822-96.805c-22.097-22.098-22.097-58.066 0-80.164 21.397-21.429 58.751-21.429 80.148 0.042l96.815 96.795c22.098 22.098 22.098 58.066 0 80.164-10.697 10.699-24.936 16.601-40.08 16.601z m-96.817-181.862c-7.563 0-14.684 2.95-20.033 8.299-11.049 11.06-11.049 29.028 0 40.055l96.838 96.838c10.698 10.771 29.361 10.74 40.061 0 11.048-11.027 11.048-28.996 0-40.023l-96.838-96.837c-5.349-5.382-12.449-8.332-20.028-8.332z" fill="#222323" p-id="8272"></path><path d="M765.725 400.23l76.029 74.995" fill="#52A3CB" p-id="8273"></path><path d="M831.814 485.297l-76.029-74.995 19.885-20.144 76.029 74.995z" fill="#222323" p-id="8274"></path></svg>