<?xml version="1.0" standalone="no"?><!DOCTYPE svg PUBLIC "-//W3C//DTD SVG 1.1//EN" "http://www.w3.org/Graphics/SVG/1.1/DTD/svg11.dtd"><svg t="1639407058302" class="icon" viewBox="0 0 1024 1024" version="1.1" xmlns="http://www.w3.org/2000/svg" p-id="12062" xmlns:xlink="http://www.w3.org/1999/xlink" width="200" height="200"><defs><style type="text/css"></style></defs><path d="M354.5 164.5H668V206H354.5z" fill="#7dc5eb" p-id="12063" data-spm-anchor-id="a313x.7781069.0.i9" class=""></path><path d="M1024.1 984.5H3V152.3h1021.1v832.2zM19 968.5h989.1V168.3H19v800.2z" fill="" p-id="12064"></path><path d="M826.7 582.4c0 171.2-135.5 310-302.7 310s-302.7-138.8-302.7-310 135.5-310 302.7-310v310h302.7z" fill="#7dc5eb" p-id="12065" data-spm-anchor-id="a313x.7781069.0.i8" class=""></path><path d="M524 900.4c-83 0-161.1-33.1-219.8-93.2-58.6-60.1-90.9-139.9-90.9-224.8s32.3-164.7 90.9-224.8c58.7-60.1 136.7-93.2 219.8-93.2h8v310h302.7v8c0 84.9-32.3 164.7-90.9 224.8-58.7 60.1-136.8 93.2-219.8 93.2z m-8-619.9c-158.8 4.4-286.7 138.1-286.7 301.9 0 166.5 132.2 302 294.7 302 159.9 0 290.4-131.2 294.6-294H516V280.5zM680.9 219.8H342.7V40h338.2v179.8z m-322.2-16h306.2V56H358.7v147.8z" fill="" p-id="12066"></path><path d="M685.9 509.2h29.9V367.3c-9.2-9.8-19.2-18.7-29.9-26.9v168.8z" fill="#bd8cbb" p-id="12067" data-spm-anchor-id="a313x.7781069.0.i14" class="selected"></path><path d="M715.7 323.6c-9.4-8-19.4-15.2-29.9-21.6-5.2-3.2-10.3-6.1-15.6-9v248.2h61.1V338c-4.9-5.1-10.3-9.9-15.6-14.4z m0 185.6h-29.9V340.4c10.8 8 20.8 17 29.9 26.9v141.9z" fill="" p-id="12068"></path><path d="M780.8 436.3v79.3h24.1c-2.1-28.8-10.7-55.7-24.1-79.3z" fill="#bd8cbb" p-id="12069" data-spm-anchor-id="a313x.7781069.0.i15" class="selected"></path><path d="M780.8 392.6c-3.9-4.6-8.1-9.3-12.5-13.6V541.2h61.9v-12.8c0-51.9-18.6-99.4-49.4-135.8z m0 43.7c13.6 23.5 22 50.6 24.1 79.3h-24.1v-79.3z" fill="" p-id="12070"></path><path d="M590.7 509.2H614V299.9c-7.7-1.4-15.3-2.4-23.3-3v212.3z" fill="#bd8cbb" p-id="12071" data-spm-anchor-id="a313x.7781069.0.i13" class="selected"></path><path d="M629.6 270.4v8.8-8.8c-17.7-3.8-36-6.1-54.7-6.1v276.8h54.5V270.4h0.2zM614 509.2h-23.3V297c7.8 0.6 15.6 1.6 23.3 3v209.2z" fill="" p-id="12072"></path></svg>