<?xml version="1.0" standalone="no"?><!DOCTYPE svg PUBLIC "-//W3C//DTD SVG 1.1//EN" "http://www.w3.org/Graphics/SVG/1.1/DTD/svg11.dtd"><svg t="1639413477783" class="icon" viewBox="0 0 1024 1024" version="1.1" xmlns="http://www.w3.org/2000/svg" p-id="18291" xmlns:xlink="http://www.w3.org/1999/xlink" width="200" height="200"><defs><style type="text/css"></style></defs><path d="M116.8 293.8h792.3v666.5H116.8z" fill="#5B79FB" p-id="18292"></path><path d="M753.3 303.2c-3.7-118.4-110-213.8-240.4-213.8s-236.6 95.4-240.3 213.8h-23.7c3.6-132.3 120.6-238.9 264-238.9s260.4 106.6 264 238.9h-23.6z" fill="#FF7E71" p-id="18293"></path><path d="M154.5 152.3h716.8v238.9H154.5z" fill="#C7D8FF" p-id="18294"></path><path d="M116.8 265.5h792.3v650.8H116.8z" fill="#E5ECFF" p-id="18295"></path><path d="M909 278.1H116.8l85.2-74.5-47.5-51.3h716.8l-49.7 51.3z" fill="#5B79FB" p-id="18296"></path><path d="M774.6 380.2C757.1 260.6 646.5 168 512.9 168c-134.5 0-245.8 93.9-262 214.8-12.3 6.2-20.9 18.8-20.9 33.6 0 20.8 16.9 37.7 37.7 37.7 20.8 0 37.7-16.9 37.7-37.7 0-18.2-12.9-33.4-30-36.9 17.8-105.3 117.4-186.3 237.5-186.3 120.8 0 220.8 81.9 237.8 188.1-14.1 5.5-24.1 19.1-24.1 35.1 0 20.8 16.9 37.7 37.7 37.7 20.8 0 37.7-16.9 37.7-37.7 0.1-17.3-11.6-31.7-27.4-36.2z" fill="#FF7E71" p-id="18297"></path></svg>