<?xml version="1.0" standalone="no"?><!DOCTYPE svg PUBLIC "-//W3C//DTD SVG 1.1//EN" "http://www.w3.org/Graphics/SVG/1.1/DTD/svg11.dtd"><svg t="1639399183506" class="icon" viewBox="0 0 1024 1024" version="1.1" xmlns="http://www.w3.org/2000/svg" p-id="2058" xmlns:xlink="http://www.w3.org/1999/xlink" width="200" height="200"><defs><style type="text/css"></style></defs><path d="M47.616 11.264c20.992 0 39.424 15.36 43.008 36.352l0.512 7.168v877.568H972.8c20.992 0 39.424 15.36 43.008 36.352l0.512 7.168c0 20.992-15.36 39.424-36.352 43.008H4.096V54.272C4.096 30.72 23.552 11.264 47.616 11.264z" fill="#343399" p-id="2059"></path><path d="M957.952 274.432c15.36 14.336 17.92 37.376 6.656 55.296l-4.608 6.144-251.392 265.728c-15.872 16.896-42.496 18.432-59.904 3.072l-5.12-5.632-132.096-163.328-269.824 273.92c-14.336 15.36-37.376 17.92-55.296 6.656l-6.144-5.12c-15.36-14.336-17.92-37.376-6.656-55.296l4.608-6.144 304.128-309.76c15.872-16.896 42.496-17.92 59.904-3.072l5.12 5.632 131.584 163.328L896 275.968c17.408-17.408 44.544-17.92 61.952-1.536z" fill="#F59D0D" p-id="2060"></path></svg>