<?xml version="1.0" standalone="no"?><!DOCTYPE svg PUBLIC "-//W3C//DTD SVG 1.1//EN" "http://www.w3.org/Graphics/SVG/1.1/DTD/svg11.dtd"><svg t="1639399087550" class="icon" viewBox="0 0 1024 1024" version="1.1" xmlns="http://www.w3.org/2000/svg" p-id="1910" xmlns:xlink="http://www.w3.org/1999/xlink" width="200" height="200"><defs><style type="text/css"></style></defs><path d="M912.384 520.192H503.808V54.784H496.64c-122.88 0-237.056 48.128-321.536 135.68C91.136 276.992 44.544 393.216 44.544 517.12c0 254.976 207.36 462.336 462.336 462.336 123.904 0 240.128-46.08 326.656-130.56 87.552-84.48 135.68-199.168 135.68-321.536v-7.168h-56.832zM506.88 908.288c-219.136 0-391.168-171.52-391.168-391.168 0-200.192 132.096-356.352 316.928-386.048v460.288h460.288c-29.696 184.32-185.856 316.928-386.048 316.928z" fill="#343399" p-id="1911"></path><path d="M850.944 173.056c-76.288-76.288-178.176-117.76-287.232-117.76h-7.168V467.456H969.216v-7.168c0-109.056-41.984-211.456-118.272-287.232z m-223.232-40.96c133.12 26.112 238.08 131.072 263.68 263.68h-263.68V132.096z" fill="#F59D0D" p-id="1912"></path></svg>