<?xml version="1.0" standalone="no"?><!DOCTYPE svg PUBLIC "-//W3C//DTD SVG 1.1//EN" "http://www.w3.org/Graphics/SVG/1.1/DTD/svg11.dtd"><svg t="1639416378426" class="icon" viewBox="0 0 1024 1024" version="1.1" xmlns="http://www.w3.org/2000/svg" p-id="27710" xmlns:xlink="http://www.w3.org/1999/xlink" width="200" height="200"><defs><style type="text/css"></style></defs><path d="M787.472 1024H236.528A236.8 236.8 0 0 1 0 787.504V236.496A236.8 236.8 0 0 1 236.528 0h550.944a59.408 59.408 0 0 1 0 118.8H236.528a117.84 117.84 0 0 0-117.728 117.68v551.024a117.84 117.84 0 0 0 117.728 117.68h550.944a117.84 117.84 0 0 0 117.728-117.68V342.272a59.408 59.408 0 1 1 118.8 0v445.232A236.8 236.8 0 0 1 787.472 1024z" fill="#e6e6e6" p-id="27711" data-spm-anchor-id="a313x.7781069.0.i46" class="selected"></path><path d="M745.92 443.568l-209.6 227.52a34.176 34.176 0 0 1-48.992 0l-209.6-227.52a40.16 40.16 0 0 1 24.496-66.4h419.744A33.6 33.6 0 0 1 753.6 401.6a37.28 37.28 0 0 1-7.68 41.968z" fill="#12ADA9" p-id="27712"></path></svg>