<?xml version="1.0" standalone="no"?><!DOCTYPE svg PUBLIC "-//W3C//DTD SVG 1.1//EN" "http://www.w3.org/Graphics/SVG/1.1/DTD/svg11.dtd"><svg t="1639416105534" class="icon" viewBox="0 0 1024 1024" version="1.1" xmlns="http://www.w3.org/2000/svg" p-id="27306" xmlns:xlink="http://www.w3.org/1999/xlink" width="200" height="200"><defs><style type="text/css"></style></defs><path d="M789.504 383.6928L512 661.1968l-277.4528-277.504A38.4 38.4 0 1 0 180.224 438.016l304.64 304.64a38.4 38.4 0 0 0 54.272 0l304.64-304.64a38.4 38.4 0 0 0-54.272-54.3232z" fill="#438CFF" p-id="27307"></path><path d="M512 12.8C236.7488 12.8 12.8 236.7488 12.8 512s223.9488 499.2 499.2 499.2a496.4864 496.4864 0 0 0 448.3072-279.296 38.4 38.4 0 0 0-68.9152-33.8944A420.096 420.096 0 0 1 512 934.4c-232.9088 0-422.4-189.4912-422.4-422.4S279.0912 89.6 512 89.6s422.4 189.4912 422.4 422.4a38.4 38.4 0 0 0 76.8 0c0-275.2512-223.9488-499.2-499.2-499.2z" fill="#438CFF" p-id="27308"></path></svg>