<?xml version="1.0" standalone="no"?><!DOCTYPE svg PUBLIC "-//W3C//DTD SVG 1.1//EN" "http://www.w3.org/Graphics/SVG/1.1/DTD/svg11.dtd"><svg t="1639413554700" class="icon" viewBox="0 0 1024 1024" version="1.1" xmlns="http://www.w3.org/2000/svg" p-id="22438" xmlns:xlink="http://www.w3.org/1999/xlink" width="200" height="200"><defs><style type="text/css"></style></defs><path d="M656.393 206.322L255.68 608.22c-4.602 4.602-7.152 13.017-5.213 19.266l247.131 247.131c1.732-0.09 3.714-1.037 4.376-1.7l420.053-420.806c0.956-1.928 1.823-4.1 2.183-5.481l-39.089-203.034-209.74-51.493c-6.001 0-18.988 14.219-18.988 14.219z m80.2 53.753c12.797-12.798 29.812-19.845 47.91-19.845s35.113 7.048 47.91 19.845c26.418 26.418 26.418 69.402 0 95.819-12.797 12.797-29.812 19.845-47.91 19.845s-35.113-7.048-47.91-19.845c-26.418-26.417-26.418-69.402 0-95.819z m-23.156 251.324l-118.56 29.603 31.534 31.534-22.289 22.289-38.947-38.947-16.906 16.906 38.947 38.947-22.504 22.504-38.947-38.947-30.903 30.903-35.183-35.183 30.903-30.903-40.273-40.273 22.504-22.504 40.273 40.273 16.906-16.906-40.273-40.273 22.289-22.289 32.418 32.418 30.821-117.342 37.618 37.618c-17.275 51.351-16.754 72.366-23.165 87.778l88.11-22.833 35.627 35.627zM952.577 458.378c-1.707 4.962-3.879 9.017-4.847 10.691l-0.957 1.742-423.064 423.625a32.305 32.305 0 0 1-4.478 3.707l5.872 5.872c5.865 5.865 17.941 3.298 23.806-2.567l399.664-400.38s9.274-12.143 9.274-18.146l-5.27-24.544z" fill="#fef9aa" p-id="22439" data-spm-anchor-id="a313x.7781069.0.i27" class="selected"></path><path d="M97.019 584.66c-0.856-2.725-0.856-8.675 0-11.4L517.91 152.369c6.006-6.006 6.006-15.743 0-21.749-6.005-6.007-15.744-6.007-21.749 0L74.312 552.467c-7.559 7.558-8.687 19.843-8.687 26.493s1.128 18.935 8.687 26.492l281.055 281.055a15.332 15.332 0 0 0 10.875 4.505c3.936 0 7.872-1.502 10.875-4.505 6.006-6.005 6.006-15.744 0-21.749L97.019 584.66z" fill="#1195db" p-id="22440" data-spm-anchor-id="a313x.7781069.0.i25" class=""></path><path d="M946.772 470.811l0.957-1.742c0.968-1.674 3.14-5.729 4.847-10.691 1.313-3.817 2.352-8.17 2.352-12.391v-1.467l-46.455-241.864c-0.874-13.108-11.271-23.713-24.456-24.862l-231.405-61.296h-2c-11.96 0-20.968 8.579-23.034 10.703L192.604 563.517c-5.417 5.417-9.187 13.136-10.345 21.228-1.43 9.993 1.354 19.273 7.637 25.556l286.963 286.853c5.162 5.162 12.435 7.786 20.476 7.786h0.003c7.686 0 15.631-2.463 21.894-6.797a32.376 32.376 0 0 0 4.478-3.707l423.062-423.625zM214.368 585.28l435.077-436.328-0.033 0.06 0.21-0.236c0.275-0.259 0.626-0.541 0.971-0.788l227.714 60.217 6.814 35.392 39.089 203.034c-0.359 1.381-1.227 3.552-2.183 5.481L501.975 872.916c-0.662 0.663-2.644 1.61-4.376 1.7L250.467 627.485l-37.826-37.826c0.079-1.323 0.825-3.478 1.727-4.379z" fill="#1195db" p-id="22441" data-spm-anchor-id="a313x.7781069.0.i24" class=""></path><path d="M784.503 344.981c9.882 0 19.173-3.848 26.161-10.836 14.424-14.425 14.424-37.895 0-52.32-6.988-6.988-16.278-10.836-26.161-10.836-9.882 0-19.173 3.848-26.161 10.837-14.424 14.425-14.424 37.895 0 52.32 6.988 6.987 16.279 10.835 26.161 10.835z" fill="#FFFFFF" p-id="22442"></path><path d="M784.503 375.739c18.098 0 35.113-7.048 47.91-19.845 26.418-26.417 26.418-69.402 0-95.819-12.797-12.797-29.812-19.845-47.91-19.845s-35.113 7.048-47.91 19.845c-26.418 26.417-26.418 69.402 0 95.819 12.797 12.797 29.813 19.845 47.91 19.845z m-26.16-93.914c6.988-6.988 16.278-10.837 26.161-10.837 9.882 0 19.173 3.848 26.161 10.836 14.424 14.425 14.424 37.895 0 52.32-6.988 6.988-16.278 10.836-26.161 10.836-9.882 0-19.173-3.848-26.161-10.836-14.424-14.424-14.424-37.894 0-52.319zM612.864 410.826l-37.618-37.618-30.821 117.342-32.418-32.418-22.289 22.289 40.273 40.273-16.905 16.906-40.273-40.273-22.504 22.504 40.273 40.273-30.903 30.903 35.183 35.183 30.903-30.903 38.947 38.947 22.504-22.504-38.947-38.947 16.906-16.906 38.947 38.947 22.289-22.289-31.534-31.534 118.56-29.603-35.627-35.627-88.11 22.833c6.41-15.412 5.889-36.427 23.164-87.778z" fill="#7dc5eb" p-id="22443" data-spm-anchor-id="a313x.7781069.0.i26" class=""></path></svg>