<?xml version="1.0" standalone="no"?><!DOCTYPE svg PUBLIC "-//W3C//DTD SVG 1.1//EN" "http://www.w3.org/Graphics/SVG/1.1/DTD/svg11.dtd"><svg t="1639544216338" class="icon" viewBox="0 0 1024 1024" version="1.1" xmlns="http://www.w3.org/2000/svg" p-id="11317" xmlns:xlink="http://www.w3.org/1999/xlink" width="200" height="200"><defs><style type="text/css"></style></defs><path d="M958.144106 816.585043c0 78.526471-63.212694 142.190443-141.178393 142.190443H207.033263c-77.964676 0-141.178393-63.663972-141.178393-142.190443V202.254424c0-78.526471 63.212694-142.190443 141.178393-142.190443h609.93245c77.964676 0 141.178393 63.663972 141.178393 142.190443v614.330619z" fill="#EA5B35" p-id="11318"></path><path d="M810.31013 494.951719l-91.509157-101.220333a85.84004 85.84004 0 0 0-10.889001-12.04636c-15.112186-13.824867-35.133172-22.357194-57.101509-22.357194H335.393723c-46.667879 0-84.84948 38.182624-84.84948 84.84948v197.98212c0 46.666856 38.181601 84.84948 84.84948 84.84948h315.41674c15.035438 0 29.163203-4.007267 41.443901-10.942213 11.024078-6.224772 20.511149-14.838963 27.796066-25.130354l84.22117-76.142167c34.618449-31.295773 37.33635-85.226057 6.03853-119.842459zM643.525546 633.226992c-2.533706 3.421936-5.910617 4.943592-9.708106 4.943592-1.691525 0-2.955308 0-4.226255-0.383739-1.263783 0-2.527566-0.759293-3.797489-1.518587-9.287527-5.699816-18.153452-11.403724-26.598798-17.483186-8.865925-5.703909-17.73185-11.403724-26.598798-17.48728-8.438183-5.320169-16.882506-11.021008-25.749454-16.344247-9.287527-5.320169-19.844977-11.400654-31.66621-18.623149 0 10.640338 0.421602 19.385513 0.421602 26.604938v28.507264c0 3.421936-0.421602 7.222495-0.421602 11.403724v12.923334c0 1.52268-0.421602 2.661619-0.421602 2.66162-0.842181 1.902326-2.955308 3.041266-6.332219 3.421936-3.37691 0.759293-5.910617 0.759293-7.596002 0.759293-4.226255 0-7.602142-1.518586-10.979052-4.560876s-5.068436-6.079462-5.068436-9.881045c0-5.324262 0-11.024078 0.842181-16.727986 0.427742-5.320169 0.849344-11.019984 1.270946-16.723893l0.842181-23.184026c0-7.602142 0-16.344247 0.421602-26.229384l-13.085016 0.759293h-13.512758v89.704045c0 1.52268-0.421602 2.661619-0.421602 2.661619-1.263783 1.902326-3.37691 3.041266-6.332219 3.421936-3.37691 0.759293-6.332219 0.759293-8.016581 0.759293-4.226255 0-8.023744-1.518586-11.400654-4.560875s-5.068436-6.079462-5.068436-9.881045c0-5.324262 0.421602-11.024078 1.263783-16.727986 0.849344-5.320169 1.270946-11.019984 1.270947-16.723894l0.842181-22.044062c0-7.602142 0.421602-15.9646 0.421602-25.465998-12.663414 0.759293-24.485671 0.759293-35.035958 0.759293h-31.66621c-4.219091 0-7.596002-1.52268-10.129708-4.940522-2.955308-3.041266-4.226255-6.463202-4.226255-11.024078 0-5.703909 2.113127-9.884115 6.332219-12.542664 4.226255-2.661619 9.715269-4.181229 16.047488-4.181229 3.37691 0 7.1744 0.379647 10.971889 0.379647 3.38305 0.759293 6.759961 0.759293 10.979052 0.759293h16.889669c5.910617 0.379647 12.663414 0.379647 20.259416 0.379647v-26.988678c0-8.742105-0.421602-17.483186-0.842181-26.604938-0.421602-9.121751-0.421602-17.866926-0.421602-26.988678 0-3.801583 1.263783-6.839779 4.646833-9.121751 3.37691-2.281973 6.752798-3.421936 10.971889-3.421936 4.226255 0 7.602142 1.13894 10.979052 3.421936 3.37691 2.281973 5.068436 5.320169 5.068436 9.121751 0 5.703909-0.427742 11.024078-0.849344 16.344247l-1.263783 16.344247c-0.421602 7.602142-0.421602 14.82566-0.421602 22.427802l-0.849345 25.845644h13.09218l13.506618-1.13894c0-5.699816 0-10.644431 0.421603-14.82566v-11.403724c0-8.742105-0.421602-17.483186-0.842181-26.604938-0.842181-9.121751-0.842181-17.866926-0.842181-26.988678 0-3.801583 1.684362-6.839779 5.068435-9.121751 2.955308-2.281973 6.752798-3.421936 10.971889-3.421936 3.797489 0 7.602142 1.13894 10.979053 3.421936 3.37691 2.281973 5.068436 5.320169 5.068435 9.121751 0 5.703909-0.427742 11.024078-0.849344 16.344247l-0.842181 16.344247c-0.842181 6.842849-0.842181 13.30605-0.842181 20.145829l-0.849344 23.946388c2.533706-0.759293 4.646833-1.51961 5.910616-2.278903 0.849344-0.379647 1.270946-0.763386 2.113128-1.143033 5.068436-2.278903 10.55745-5.320169 16.46909-9.881044 5.910617-3.801583 11.393491-8.362458 17.304107-13.682628 5.490038-4.563946 10.979052-9.504468 16.46909-14.44499l15.198144-12.923334c5.068436-4.181229 9.708106-9.124821 14.355963-14.44499 4.640694-5.320169 8.016581-9.121751 9.708106-11.783371 1.684362-1.899256 2.955308-3.421936 3.797489-4.181229 2.955308-1.899256 5.910617-3.041266 9.287527-3.041266 2.113127 0 4.226255 0.763386 6.759961 1.902326 2.527566 1.51961 4.640694 3.041266 6.752797 4.940522 1.684362 1.902326 2.955308 3.801583 4.219092 6.083556 0.842181 2.278903 1.691525 4.560876 1.691525 6.839778 0 5.703909-3.804652 11.403724-10.979052 17.48728-3.37691 3.038196-6.752798 5.320169-10.129708 7.602142-3.37691 2.278903-6.332219 4.181229-8.865925 5.699815l-64.597227 49.03274c-2.533706 2.281973-5.061272 3.801583-7.596002 5.320169-2.533706 1.52268-5.490038 3.041266-8.023744 4.563946l24.906249 15.201213c6.759961 4.181229 13.512758 8.362458 20.26658 12.542664 10.129708 6.463202 20.266579 12.542664 30.396287 18.62622 10.136871 6.079462 20.266579 12.542664 29.554106 19.385512 4.219091 3.421936 6.752798 7.602142 6.752798 12.542664 0 3.806699-1.263783 7.227612-3.797489 10.265808z m106.393145-49.990554c-22.12695 0-40.066531-17.938558-40.066531-40.067555s17.939581-40.067554 40.066531-40.067554c22.131043 0 40.066531 17.938558 40.066531 40.067554 0 22.127973-17.935488 40.067554-40.066531 40.067555z" fill="#FFFFFF" p-id="11319"></path></svg>