<?xml version="1.0" standalone="no"?><!DOCTYPE svg PUBLIC "-//W3C//DTD SVG 1.1//EN" "http://www.w3.org/Graphics/SVG/1.1/DTD/svg11.dtd"><svg t="1639483665735" class="icon" viewBox="0 0 1025 1024" version="1.1" xmlns="http://www.w3.org/2000/svg" p-id="6771" xmlns:xlink="http://www.w3.org/1999/xlink" width="200.1953125" height="200"><defs><style type="text/css"></style></defs><path d="M923.855915 300.744585a33.39117 33.39117 0 0 1-28.605102-16.250369 243.866845 243.866845 0 0 0-38.622454-51.422402 33.39117 33.39117 0 1 1 49.530236-44.52156 303.63704 303.63704 0 0 1 46.413726 61.996272 33.39117 33.39117 0 0 1-11.13039 45.745903 33.39117 33.39117 0 0 1-17.586016 4.452156z" fill="#494949" p-id="6772"></path><path d="M513.701043 1023.997329a511.997941 511.997941 0 1 1 336.360386-896.552916 33.39117 33.39117 0 0 1-44.52156 50.198059A443.991258 443.991258 0 1 0 947.786253 415.721514 33.39117 33.39117 0 1 1 1012.676427 401.585919 511.997941 511.997941 0 0 1 513.701043 1023.997329z" fill="#FFE164" p-id="6773"></path><path d="M513.701043 1023.997329a511.997941 511.997941 0 1 1 336.360386-896.552916 33.39117 33.39117 0 0 1-44.52156 50.198059A445.215601 445.215601 0 1 0 958.026212 512.889819a33.39117 33.39117 0 1 1 66.78234 0A511.997941 511.997941 0 0 1 513.701043 1023.997329z" fill="#437DFF" p-id="6774"></path><path d="M513.701043 1023.997329a511.997941 511.997941 0 1 1 336.360386-896.552916 33.39117 33.39117 0 0 1-44.52156 50.198059 445.215601 445.215601 0 1 0 144.69507 414.38442 33.39117 33.39117 0 0 1 65.669301 11.909517A510.884902 510.884902 0 0 1 513.701043 1023.997329z" fill="#E84842" p-id="6775"></path><path d="M513.701043 1023.997329a511.997941 511.997941 0 1 1 336.360386-896.552916 33.39117 33.39117 0 0 1-44.52156 50.198059 445.215601 445.215601 0 1 0 123.324721 491.963238A33.39117 33.39117 0 1 1 992.307814 693.202137a514.112715 514.112715 0 0 1-478.606771 330.795192z" fill="#494949" p-id="6776"></path><path d="M484.428117 163.506876h57.65542l-7.679969 109.968254h-42.295482l-7.679969-109.968254z" fill="#E84842" p-id="6777"></path><path d="M395.051085 182.873755l55.763254-14.914723 21.036437 108.187391-40.848531 10.907783-35.95116-104.180451z" fill="#437DFF" p-id="6778"></path><path d="M313.799238 224.724021l49.975451-28.82771 48.305893 98.949168-36.618983 21.147741-61.662361-91.269199z" fill="#FFE164" p-id="6779"></path><path d="M246.126467 286.163774l40.848531-40.848531 72.236231 83.144013-29.940749 29.94075-83.144013-72.236232z" fill="#E84842" p-id="6780"></path><path d="M196.707535 362.963465l28.82771-49.975451 91.380502 61.662361-21.147741 36.618983-99.060471-48.305893z" fill="#437DFF" p-id="6781"></path><path d="M168.770256 450.003115l14.914723-55.763254 104.18045 35.95116-10.907782 40.737228-108.187391-20.925134z" fill="#FFE164" p-id="6782"></path><path d="M164.429404 541.272314v-57.655421l109.856949 7.679969v42.295482l-109.856949 7.67997z" fill="#E84842" p-id="6783"></path><path d="M183.684979 630.538042l-14.914723-55.651951 108.187391-21.036437 10.907782 40.848532-104.18045 35.839856z" fill="#437DFF" p-id="6784"></path><path d="M225.535245 711.901193l-28.82771-50.086756 99.060471-48.194588 21.147741 36.618983-91.380502 61.662361z" fill="#FFE164" p-id="6785"></path><path d="M286.974998 779.46266l-40.848531-40.737227 83.144013-72.236232 29.940749 29.829446-72.236231 83.144013z" fill="#E84842" p-id="6786"></path><path d="M363.774689 828.992896l-49.975451-28.827711 61.662361-91.380502 36.618983 21.147741-48.305893 99.060472z" fill="#437DFF" p-id="6787"></path><path d="M450.814339 856.930175l-55.763254-15.026027 35.95116-104.180451 40.848531 11.019087-21.036437 108.187391z" fill="#FFE164" p-id="6788"></path><path d="M542.083537 861.271027h-57.65542l7.679969-109.85695h42.295482l7.679969 109.85695z" fill="#E84842" p-id="6789"></path><path d="M631.460569 841.904148l-55.763254 15.026027-21.036437-108.187391 40.848531-11.019087 35.95116 104.180451zM829.804119 661.814437l-28.82771 50.086756-91.380502-61.662361 21.147741-36.618983 99.060471 48.194588z" fill="#437DFF" p-id="6790"></path><path d="M857.741398 574.886091l-15.026026 55.651951-104.180451-35.839856 11.019086-40.848532 108.187391 21.036437z" fill="#FFE164" p-id="6791"></path><path d="M862.08225 483.616893v57.655421l-109.856949-7.67997v-42.295482l109.856949-7.679969z" fill="#E84842" p-id="6792"></path><path d="M842.715372 394.239861l15.026026 55.763254-108.187391 20.925134-11.019086-40.737228 104.180451-35.95116z" fill="#437DFF" p-id="6793"></path><path d="M800.976409 312.988014l28.82771 49.975451-99.060471 48.305893-21.147741-36.618983 91.380502-61.662361z" fill="#FFE164" p-id="6794"></path><path d="M739.536656 245.315243l40.737228 40.848531-83.144014 72.236232-29.829445-29.94075 72.236231-83.144013z" fill="#E84842" p-id="6795"></path><path d="M662.625661 195.896311l50.086755 28.82771-61.66236 91.269199-36.618984-21.147741 48.194589-98.949168z" fill="#437DFF" p-id="6796"></path><path d="M575.697315 167.959032l55.763254 14.914723-35.95116 104.180451-40.848531-10.907783 21.036437-108.187391z" fill="#FFE164" p-id="6797"></path></svg>