<?xml version="1.0" standalone="no"?><!DOCTYPE svg PUBLIC "-//W3C//DTD SVG 1.1//EN" "http://www.w3.org/Graphics/SVG/1.1/DTD/svg11.dtd"><svg t="1639413635169" class="icon" viewBox="0 0 1024 1024" version="1.1" xmlns="http://www.w3.org/2000/svg" p-id="23837" xmlns:xlink="http://www.w3.org/1999/xlink" width="200" height="200"><defs><style type="text/css"></style></defs><path d="M933.948235 0h-662.588235a90.352941 90.352941 0 0 0-90.352941 90.352941v120.470588a90.352941 90.352941 0 0 0-90.352941 90.352942v120.470588h-30.117647a60.235294 60.235294 0 0 0-60.235295 60.235294v481.882353a60.235294 60.235294 0 0 0 60.235295 60.235294h722.823529a60.235294 60.235294 0 0 0 60.235294-60.235294v-150.588235a90.352941 90.352941 0 0 0 90.352941-90.352942v-120.470588a90.352941 90.352941 0 0 0 90.352941-90.352941V90.352941a90.352941 90.352941 0 0 0-90.352941-90.352941z m-873.411764 481.882353h722.823529v128.602353h-722.823529z m0 481.882353v-293.044706h722.823529V963.764706z m813.17647-240.941177a30.117647 30.117647 0 0 1-30.117647 30.117647v-271.058823a60.235294 60.235294 0 0 0-60.235294-60.235294h-632.470588v-120.470588a30.117647 30.117647 0 0 1 30.117647-30.117647h662.588235a30.117647 30.117647 0 0 1 30.117647 30.117647z m90.352941-210.823529a30.117647 30.117647 0 0 1-30.117647 30.117647v-240.941176a90.352941 90.352941 0 0 0-90.352941-90.352942h-602.352941V90.352941a30.117647 30.117647 0 0 1 30.117647-30.117647h662.588235a30.117647 30.117647 0 0 1 30.117647 30.117647z" fill="#1296db" p-id="23838"></path><path d="M472.545882 817.694118m-30.117647 0a30.117647 30.117647 0 1 0 60.235294 0 30.117647 30.117647 0 1 0-60.235294 0Z" fill="#1296db" p-id="23839"></path><path d="M581.270588 817.694118m-30.117647 0a30.117647 30.117647 0 1 0 60.235294 0 30.117647 30.117647 0 1 0-60.235294 0Z" fill="#1296db" p-id="23840"></path><path d="M689.995294 817.694118m-30.117647 0a30.117647 30.117647 0 1 0 60.235294 0 30.117647 30.117647 0 1 0-60.235294 0Z" fill="#1296db" p-id="23841"></path></svg>