<?xml version="1.0" standalone="no"?><!DOCTYPE svg PUBLIC "-//W3C//DTD SVG 1.1//EN" "http://www.w3.org/Graphics/SVG/1.1/DTD/svg11.dtd"><svg t="1638889823770" class="icon" viewBox="0 0 1024 1024" version="1.1" xmlns="http://www.w3.org/2000/svg" p-id="21039" xmlns:xlink="http://www.w3.org/1999/xlink" width="200" height="200"><defs><style type="text/css"></style></defs><path d="M960 0 64 0C25.6 0 0 25.6 0 64L0 960C0 998.4 25.6 1024 64 1024L960 1024C998.4 1024 1024 998.4 1024 960L1024 64C1024 25.6 998.4 0 960 0ZM960 896C960 934.4 934.4 960 896 960L128 960C89.6 960 64 934.4 64 896L64 128C64 89.6 89.6 64 128 64L896 64C934.4 64 960 89.6 960 128L960 896ZM716.8 275.2 396.8 595.2 307.2 505.6C281.6 480 236.8 480 211.2 505.6 185.6 531.2 185.6 576 211.2 601.6L345.6 742.4C358.4 755.2 377.6 761.6 396.8 761.6 416 761.6 428.8 755.2 448 742.4L812.8 371.2C838.4 345.6 838.4 300.8 812.8 275.2 787.2 249.6 742.4 249.6 716.8 275.2Z" p-id="21040" fill="#2c2c2c"></path></svg>