<?xml version="1.0" standalone="no"?><!DOCTYPE svg PUBLIC "-//W3C//DTD SVG 1.1//EN" "http://www.w3.org/Graphics/SVG/1.1/DTD/svg11.dtd"><svg t="1638632996094" class="icon" viewBox="0 0 1024 1024" version="1.1" xmlns="http://www.w3.org/2000/svg" p-id="6104" xmlns:xlink="http://www.w3.org/1999/xlink" width="200" height="200"><defs><style type="text/css"></style></defs><path d="M512.8 508.4m-323.4 0a323.4 323.4 0 1 0 646.8 0 323.4 323.4 0 1 0-646.8 0Z" fill="#FFD301" p-id="6105"></path><path d="M898.5 474.9h-84.6v53.5c-4 138.6-101.2 253.7-231.2 285-11.5-11.5-27.3-18.7-44.9-18.7-34.9 0-63.2 28.3-63.2 63.2s28.3 63.2 63.2 63.2c19.1 0 36.2-8.5 47.8-21.9C759.2 865.6 891.4 716 898.2 534.4h0.3v-59.5z" fill="#EA590A" p-id="6106"></path><path d="M895.8 436.8c-25.8-188.5-187.5-333.7-383-333.7-206.1 0-374.6 161.3-386 364.6-36.3 15.2-62 51.1-62 92.7V605c0 55.2 45.2 100.4 100.4 100.4 49.1 0 89.2-40.2 89.2-89.2v-66.9c0-32.3-17.4-60.8-43.3-76.4 8.8-159 140.5-285.3 301.7-285.3 151.6 0 277.2 111.7 298.9 257.3-24.3 16-40.5 43.5-40.5 74.6v66.9c0 49.1 40.2 89.2 89.2 89.2 55.2 0 100.4-45.2 100.4-100.4v-44.6c0-42.7-27.1-79.4-65-93.8z" fill="#0D4D90" p-id="6107"></path></svg>