<?xml version="1.0" standalone="no"?><!DOCTYPE svg PUBLIC "-//W3C//DTD SVG 1.1//EN" "http://www.w3.org/Graphics/SVG/1.1/DTD/svg11.dtd"><svg t="1638975059604" class="icon" viewBox="0 0 1024 1024" version="1.1" xmlns="http://www.w3.org/2000/svg" p-id="2105" xmlns:xlink="http://www.w3.org/1999/xlink" width="200" height="200"><defs><style type="text/css"></style></defs><path d="M704 280.5C704 174.737 618.263 89 512.5 89S321 174.737 321 280.5V323h383v-42.5zM764 383H261V280.5C261 141.6 373.6 29 512.5 29S764 141.6 764 280.5V383z" fill="#f4ea2a" p-id="2106" data-spm-anchor-id="a313x.7781069.0.i8" class=""></path><path d="M189 384c-16.569 0-30 13.431-30 30v455c0 16.569 13.431 30 30 30h646c16.569 0 30-13.431 30-30V414c0-16.569-13.431-30-30-30H189z m0-60h646c49.706 0 90 40.294 90 90v455c0 49.706-40.294 90-90 90H189c-49.706 0-90-40.294-90-90V414c0-49.706 40.294-90 90-90z" fill="#efb336" p-id="2107" data-spm-anchor-id="a313x.7781069.0.i9" class=""></path><path d="M472 659.925c-23.348-13.85-39-39.31-39-68.425 0-43.907 35.593-79.5 79.5-79.5s79.5 35.593 79.5 79.5c0 29.53-16.1 55.298-40 69.008V731c0 22.091-17.909 40-40 40s-40-17.909-40-40v-71.075z" fill="#f4ea2a" p-id="2108" data-spm-anchor-id="a313x.7781069.0.i7" class=""></path></svg>