<?xml version="1.0" standalone="no"?><!DOCTYPE svg PUBLIC "-//W3C//DTD SVG 1.1//EN" "http://www.w3.org/Graphics/SVG/1.1/DTD/svg11.dtd"><svg t="1638977758371" class="icon" viewBox="0 0 1024 1024" version="1.1" xmlns="http://www.w3.org/2000/svg" p-id="3007" xmlns:xlink="http://www.w3.org/1999/xlink" width="200" height="200"><defs><style type="text/css"></style></defs><path d="M512 512m-512 0a512 512 0 1 0 1024 0 512 512 0 1 0-1024 0Z" p-id="3008" data-spm-anchor-id="a313x.7781069.0.i11" class="" fill="#ffffff"></path><path d="M348.16 430.08m51.2 0l307.2 0q51.2 0 51.2 51.2l0 204.8q0 51.2-51.2 51.2l-307.2 0q-51.2 0-51.2-51.2l0-204.8q0-51.2 51.2-51.2Z" fill="#EBBA50" p-id="3009"></path><path d="M399.36 245.76a122.88 122.88 0 0 1 122.88 122.88v61.44H276.48v-61.44a122.88 122.88 0 0 1 122.88-122.88z" fill="#e16531" p-id="3010" data-spm-anchor-id="a313x.7781069.0.i13" class="selected"></path><path d="M399.36 286.72a81.92 81.92 0 0 1 81.92 81.92v61.44H317.44v-61.44a81.92 81.92 0 0 1 81.92-81.92z" p-id="3011" data-spm-anchor-id="a313x.7781069.0.i10" class="" fill="#ffffff"></path><path d="M276.48 378.88h40.96v51.2h-40.96z" p-id="3012" data-spm-anchor-id="a313x.7781069.0.i12" class="" fill="#ffffff"></path><path d="M296.96 378.88m-20.48 0a20.48 20.48 0 1 0 40.96 0 20.48 20.48 0 1 0-40.96 0Z" fill="#e16531" p-id="3013" data-spm-anchor-id="a313x.7781069.0.i14" class="selected"></path><path d="M552.96 542.72m-40.96 0a40.96 40.96 0 1 0 81.92 0 40.96 40.96 0 1 0-81.92 0Z" p-id="3014"></path><path d="M532.48 573.44m20.48 0l0 0q20.48 0 20.48 20.48l0 20.48q0 20.48-20.48 20.48l0 0q-20.48 0-20.48-20.48l0-20.48q0-20.48 20.48-20.48Z" p-id="3015"></path></svg>