<?xml version="1.0" standalone="no"?><!DOCTYPE svg PUBLIC "-//W3C//DTD SVG 1.1//EN" "http://www.w3.org/Graphics/SVG/1.1/DTD/svg11.dtd"><svg t="1638975025143" class="icon" viewBox="0 0 1024 1024" version="1.1" xmlns="http://www.w3.org/2000/svg" p-id="1618" data-spm-anchor-id="a313x.7781069.0.i3" xmlns:xlink="http://www.w3.org/1999/xlink" width="200" height="200"><defs><style type="text/css"></style></defs><path d="M391.273 572.19c-55.505 20.578-103.417 55.546-142.497 102.249-47.428 56.678-78.074 127.729-85.832 189.747h700.124c-7.72-62.072-38.247-133.123-85.527-189.778-39.192-46.963-87.323-82.052-143.16-102.576C598.214 591.7 556.676 603 512.5 603c-43.911 0-85.215-11.165-121.227-30.81z m-55.851-41.29C288.272 484.864 259 420.6 259 349.5 259 209.496 372.496 96 512.5 96 652.504 96 766 209.496 766 349.5c0 70.836-29.054 134.887-75.896 180.884 51.101 24.786 95.975 60.61 133.504 105.58C887.544 712.58 925 811.699 925 894.187c0 16.569-13.431 30-30 30H131c-16.569 0-30-13.431-30-30 0-82.452 37.62-181.601 101.76-258.252 37.357-44.643 81.946-80.273 132.662-105.035zM512.5 543C619.367 543 706 456.367 706 349.5S619.367 156 512.5 156 319 242.633 319 349.5 405.633 543 512.5 543z" fill="#e98f36" p-id="1619" data-spm-anchor-id="a313x.7781069.0.i1" class=""></path><path d="M401.364 413.101c-6.131-9.188-3.653-21.606 5.535-27.737 9.188-6.131 21.606-3.653 27.737 5.535 17.249 25.848 42.468 38.477 77.968 38.477s60.719-12.63 77.967-38.477c6.131-9.188 18.55-11.666 27.738-5.535 9.187 6.131 11.665 18.55 5.534 27.737-24.903 37.32-62.754 56.275-111.24 56.275-48.485 0-86.335-18.955-111.24-56.275z" fill="#f4ea2a" p-id="1620" data-spm-anchor-id="a313x.7781069.0.i0" class=""></path></svg>