<?xml version="1.0" standalone="no"?><!DOCTYPE svg PUBLIC "-//W3C//DTD SVG 1.1//EN" "http://www.w3.org/Graphics/SVG/1.1/DTD/svg11.dtd"><svg t="1639406908757" class="icon" viewBox="0 0 1024 1024" version="1.1" xmlns="http://www.w3.org/2000/svg" p-id="10150" xmlns:xlink="http://www.w3.org/1999/xlink" width="200" height="200"><defs><style type="text/css"></style></defs><path d="M958.144106 816.585043c0 78.526471-63.212694 142.190443-141.178393 142.190443H207.033263c-77.964676 0-141.178393-63.663972-141.178393-142.190443V202.254424c0-78.526471 63.212694-142.190443 141.178393-142.190443h609.93245c77.964676 0 141.178393 63.663972 141.178393 142.190443v614.330619z" fill="#DB3325" p-id="10151"></path><path d="M447.38947 256.582773s-44.378743-39.447431-83.45676-13.634532c-30.776957 20.330024-36.944424 63.899332-14.229073 92.961228 14.891152 19.051915 42.363853 38.253232 92.872201 47.471175 18.143219 3.311419 37.235043-4.557806 45.833884-20.8734 10.378371-19.690458 9.764388-53.147454-41.020252-105.924471zM582.244854 291.076378s33.707706-29.962405 63.389726-10.355859c23.376407 15.441691 28.061103 48.535413 10.80816 70.609151-11.310603 14.470573-32.177863 29.054733-70.541613 36.056194-13.780865 2.515287-28.282137-3.461845-34.812877-15.854083-7.883551-14.956643-7.416923-40.368406 31.156604-80.455403zM213.006302 418.355203h287.3628v125.85029H213.006302zM529.772782 418.355203h287.360753v125.85029H529.772782zM270.91213 575.71616h229.455948V828.696896h-229.455948zM529.772782 575.71616h229.453902V828.696896H529.772782z" fill="#FFFFFF" p-id="10152"></path></svg>