<?xml version="1.0" standalone="no"?><!DOCTYPE svg PUBLIC "-//W3C//DTD SVG 1.1//EN" "http://www.w3.org/Graphics/SVG/1.1/DTD/svg11.dtd"><svg t="1639414560824" class="icon" viewBox="0 0 1024 1024" version="1.1" xmlns="http://www.w3.org/2000/svg" p-id="25990" xmlns:xlink="http://www.w3.org/1999/xlink" width="200" height="200"><defs><style type="text/css"></style></defs><path d="M672 522.666667H352a10.666667 10.666667 0 0 1 0-21.333334h320a10.666667 10.666667 0 0 1 0 21.333334z" fill="#00A99D" p-id="25991"></path><path d="M512 672a10.666667 10.666667 0 0 1-10.666667-10.666667V362.666667a10.666667 10.666667 0 0 1 21.333334 0v298.666666a10.666667 10.666667 0 0 1-10.666667 10.666667z" fill="#00A99D" p-id="25992"></path><path d="M213.333333 398.933333a10.666667 10.666667 0 0 1-7.573333-3.093333 10.666667 10.666667 0 0 1 0-15.146667l165.653333-165.546666A42.666667 42.666667 0 0 1 401.493333 202.666667H512a10.666667 10.666667 0 0 1 0 21.333333H401.493333a21.333333 21.333333 0 0 0-15.04 6.293333L220.906667 395.84a10.666667 10.666667 0 0 1-7.573334 3.093333zM388.266667 821.333333a10.666667 10.666667 0 0 1-7.466667-3.093333L215.146667 652.586667A42.666667 42.666667 0 0 1 202.666667 622.506667V512a10.666667 10.666667 0 0 1 21.333333 0v110.506667a21.333333 21.333333 0 0 0 6.293333 15.04l165.546667 165.546666a10.666667 10.666667 0 0 1 0 15.146667 10.666667 10.666667 0 0 1-7.573333 3.093333zM622.506667 821.333333H512a10.666667 10.666667 0 0 1 0-21.333333h110.506667a21.333333 21.333333 0 0 0 15.04-6.293333l165.546666-165.546667a10.666667 10.666667 0 0 1 15.146667 0 10.666667 10.666667 0 0 1 0 15.04L652.586667 808.853333A42.666667 42.666667 0 0 1 622.506667 821.333333zM810.666667 522.666667a10.666667 10.666667 0 0 1-10.666667-10.666667V401.493333a21.333333 21.333333 0 0 0-6.293333-15.04L628.16 220.906667a10.666667 10.666667 0 0 1 0-15.146667 10.666667 10.666667 0 0 1 15.04 0l165.653333 165.653333A42.666667 42.666667 0 0 1 821.333333 401.493333V512a10.666667 10.666667 0 0 1-10.666666 10.666667z" fill="#333333" p-id="25993"></path></svg>