<?xml version="1.0" standalone="no"?><!DOCTYPE svg PUBLIC "-//W3C//DTD SVG 1.1//EN" "http://www.w3.org/Graphics/SVG/1.1/DTD/svg11.dtd"><svg t="1638892540896" class="icon" viewBox="0 0 1024 1024" version="1.1" xmlns="http://www.w3.org/2000/svg" p-id="5692" xmlns:xlink="http://www.w3.org/1999/xlink" width="200" height="200"><defs><style type="text/css"></style></defs><path d="M163.84 371.2h696.32c22.528 0 40.96 18.432 40.96 40.96v501.76c0 22.528-18.432 40.96-40.96 40.96h-696.32c-22.528 0-40.96-18.432-40.96-40.96v-501.76c0-22.528 18.432-40.96 40.96-40.96z" fill="#FFFFFF" p-id="5693"></path><path d="M860.16 975.36h-696.32c-33.792 0-61.44-27.648-61.44-61.44v-501.76c0-33.792 27.648-61.44 61.44-61.44h696.32c33.792 0 61.44 27.648 61.44 61.44v501.76c0 33.792-27.648 61.44-61.44 61.44z m-696.32-583.68c-11.264 0-20.48 9.216-20.48 20.48v501.76c0 11.264 9.216 20.48 20.48 20.48h696.32c11.264 0 20.48-9.216 20.48-20.48v-501.76c0-11.264-9.216-20.48-20.48-20.48h-696.32z" fill="#80878B" p-id="5694"></path><path d="M163.84 69.12h696.32c22.528 0 40.96 18.432 40.96 40.96l102.4 399.36c0 22.528-32.768 61.44-40.96 40.96 0 0-20.48-81.92-148.48-81.92s-148.48 92.16-302.08 92.16-180.224-92.16-296.96-92.16-153.6 81.92-153.6 81.92c-14.336 21.504-40.96-18.432-40.96-40.96l102.4-399.36c0-22.528 18.432-40.96 40.96-40.96z" fill="#FFFFFF" p-id="5695"></path><path d="M512 581.12c-87.552 0-137.216-28.672-180.736-53.248-36.352-20.992-67.072-38.912-116.224-38.912-101.376 0-133.632 67.072-135.168 70.144l-1.536 3.072c-8.704 12.8-22.528 17.92-36.352 13.824-23.552-7.168-41.984-41.984-41.984-66.048v-2.56l102.4-399.36c1.536-32.768 28.672-58.368 61.44-58.368h696.32c32.768 0 59.904 26.112 61.44 58.368l102.4 399.36v2.56c0 24.576-24.064 61.952-48.128 66.56-13.824 2.56-26.624-4.608-32.256-17.92l-1.024-2.56c-0.512-2.56-19.456-66.56-128.512-66.56-55.808 0-88.064 18.432-125.952 40.448-42.496 23.552-90.624 51.2-176.128 51.2z m-296.96-133.12c59.904 0 98.816 22.528 136.704 44.032 40.96 23.552 83.456 48.128 160.256 48.128 74.752 0 114.176-22.528 156.16-46.592 38.912-22.528 79.36-45.568 145.92-45.568 104.96 0 146.432 51.2 160.768 79.36 3.584-5.12 7.168-11.776 7.68-15.872l-102.4-398.848v-2.56c0-11.264-9.216-20.48-20.48-20.48h-696.32c-11.264 0-20.48 9.216-20.48 20.48v2.56l-102.4 398.848c0.512 6.144 4.608 13.824 8.192 18.944 16.384-25.088 64-82.432 166.4-82.432z" fill="#80878B" p-id="5696"></path><path d="M670.72 934.4h-40.96v-266.24h-230.4v266.24h-40.96v-266.24c0-22.528 18.432-40.96 40.96-40.96h230.4c22.528 0 40.96 18.432 40.96 40.96v266.24z" fill="#FAB90A" p-id="5697"></path></svg>