<?xml version="1.0" standalone="no"?><!DOCTYPE svg PUBLIC "-//W3C//DTD SVG 1.1//EN" "http://www.w3.org/Graphics/SVG/1.1/DTD/svg11.dtd"><svg t="1639413882827" class="icon" viewBox="0 0 1024 1024" version="1.1" xmlns="http://www.w3.org/2000/svg" p-id="24416" xmlns:xlink="http://www.w3.org/1999/xlink" width="200" height="200"><defs><style type="text/css"></style></defs><path d="M471.04 481.28H215.04c-5.632 0-10.24-4.608-10.24-10.24V215.04c0-5.632 4.608-10.24 10.24-10.24h256c5.632 0 10.24 4.608 10.24 10.24v256c0 5.632-4.608 10.24-10.24 10.24z" fill="#7A7AF9" p-id="24417"></path><path d="M808.96 481.28h-256c-5.632 0-10.24-4.608-10.24-10.24V215.04c0-5.632 4.608-10.24 10.24-10.24h256c5.632 0 10.24 4.608 10.24 10.24v256c0 5.632-4.608 10.24-10.24 10.24zM471.04 819.2H215.04c-5.632 0-10.24-4.608-10.24-10.24v-256c0-5.632 4.608-10.24 10.24-10.24h256c5.632 0 10.24 4.608 10.24 10.24v256c0 5.632-4.608 10.24-10.24 10.24z" fill="#CCDAFF" p-id="24418"></path><path d="M808.96 819.2h-256c-5.632 0-10.24-4.608-10.24-10.24v-256c0-5.632 4.608-10.24 10.24-10.24h256c5.632 0 10.24 4.608 10.24 10.24v256c0 5.632-4.608 10.24-10.24 10.24z" fill="#7A7AF9" p-id="24419"></path></svg>