<?xml version="1.0" standalone="no"?><!DOCTYPE svg PUBLIC "-//W3C//DTD SVG 1.1//EN" "http://www.w3.org/Graphics/SVG/1.1/DTD/svg11.dtd"><svg t="1638636119373" class="icon" viewBox="0 0 1024 1024" version="1.1" xmlns="http://www.w3.org/2000/svg" p-id="4880" id="mx_n_1638636119379" xmlns:xlink="http://www.w3.org/1999/xlink" width="200" height="200"><defs><style type="text/css"></style></defs><path d="M823.786667 693.333333l37.418666-467.626666-383.637333 18.261333L440.106667 693.333333h383.68z m-397.034667 31.936a21.333333 21.333333 0 0 1-19.498667-23.04l39.189334-470.250666a21.333333 21.333333 0 0 1 20.266666-19.541334l405.077334-19.285333a21.333333 21.333333 0 0 1 22.272 23.018667L854.912 705.706667a21.333333 21.333333 0 0 1-21.269333 19.626666h-405.12a21.333333 21.333333 0 0 1-1.770667-0.064z" fill="#F85600" p-id="4881"></path><path d="M881.664 441.941333l-26.325333 251.477334a21.333333 21.333333 0 0 1-21.162667 19.114666l-408.192 1.024 23.488-307.242666 411.605333 12.074666a21.333333 21.333333 0 0 1 20.586667 23.552z" fill="#FFB468" p-id="4882"></path><path d="M425.984 713.557333l-217.386667-120.981333a42.666667 42.666667 0 0 1-21.461333-31.146667L152.661333 324.096a21.333333 21.333333 0 0 1 28.906667-22.933333l267.904 105.152-23.488 307.242666z" fill="#FF7325" p-id="4883"></path><path d="M172.757333 297.557333L597.333333 277.333333l-21.333333 320H229.013333a42.666667 42.666667 0 0 1-42.24-36.629333l-34.133333-238.826667a21.333333 21.333333 0 0 1 20.117333-24.32z" fill="#FF962A" p-id="4884"></path><path d="M882.581333 433.770667l-26.24 261.76a21.333333 21.333333 0 0 1-30.186666 17.258666L576 597.333333l21.333333-320 273.493334 135.189334a21.333333 21.333333 0 0 1 11.754666 21.248z" fill="#FF7325" p-id="4885"></path><path d="M586.368 466.304l279.381333 135.082667-2.261333 22.549333-280.234667-135.509333 1.173334-17.493334 1.941333-4.629333z m5.290667-104.106667l284.309333 137.450667-2.261333 22.570667-283.562667-137.130667 1.514667-22.890667z" fill="#EC5702" p-id="4886"></path><path d="M219.52 597.333333h348.330667a42.666667 42.666667 0 0 1 15.722666 3.008l263.061334 104.405334a10.666667 10.666667 0 0 1-3.925334 20.586666H431.978667a42.666667 42.666667 0 0 1-19.733334-4.821333l-197.674666-103.04A10.666667 10.666667 0 0 1 219.52 597.333333z" fill="#FC280E" p-id="4887"></path><path d="M597.76 278.016c2.666667 0.618667 6.592 2.069333 11.754667 4.416l-19.328 288.192c-0.832 12.202667-0.405333 20.416 1.28 24.64 1.173333 3.008 6.336 7.786667 15.424 14.336l239.744 95.146667a10.666667 10.666667 0 0 1-3.925334 20.586666H431.978667a42.666667 42.666667 0 0 1-19.733334-4.821333l-197.674666-103.04A10.666667 10.666667 0 0 1 219.52 597.333333h318.122667c14.122667-2.282667 22.357333-5.461333 24.682666-9.557333 3.328-5.866667 5.205333-12.074667 5.632-18.666667l19.136-291.797333c4.458667-0.128 8.021333 0.106667 10.666667 0.704zM567.850667 618.666667H263.04l159.082667 82.922666a21.333333 21.333333 0 0 0 9.856 2.410667h354.944l-211.2-83.84a21.333333 21.333333 0 0 0-7.893334-1.493333z" fill="#FFB468" p-id="4888"></path><path d="M671.765333 652.650667l21.12 2.965333-12.373333 88.469333a10.666667 10.666667 0 0 1-10.581333 9.173334H324.373333a10.666667 10.666667 0 0 1-10.517333-12.437334l12.373333-72.490666 21.034667 3.584-10.24 60.032h323.626667l11.093333-79.296zM818.325333 714.794667l21.205334 2.304-9.472 87.04-21.205334-2.304z" fill="#FFB468" p-id="4889"></path><path d="M396.437333 707.306667l21.290667 1.28-4.608 77.354666-21.290667-1.28z" fill="#FFB468" p-id="4890"></path><path d="M242.837333 725.504l-2.24 0.426667C225.173333 729.706667 213.333333 751.872 213.333333 778.666667c0 29.44 14.336 53.333333 32 53.333333l1.322667-0.042667v0.106667L224 832C206.336 832 192 808.106667 192 778.666667s14.336-53.333333 32-53.333334l18.837333 0.170667zM562.837333 725.504l-2.24 0.426667C545.173333 729.706667 533.333333 751.872 533.333333 778.666667c0 29.44 14.336 53.333333 32 53.333333l1.322667-0.042667v0.106667L544 832c-17.664 0-32-23.893333-32-53.333333s14.336-53.333333 32-53.333334l18.837333 0.170667z" fill="#FF5C00" p-id="4891"></path><path d="M213.333333 778.666667a53.333333 32 90 1 0 64 0 53.333333 32 90 1 0-64 0Z" fill="#ED0808" p-id="4892"></path><path d="M533.333333 778.666667a53.333333 32 90 1 0 64 0 53.333333 32 90 1 0-64 0Z" fill="#ED0808" p-id="4893"></path><path d="M456.170667 832.170667l-2.24 0.426666C438.506667 836.373333 426.666667 858.538667 426.666667 885.333333c0 29.44 14.336 53.333333 32 53.333334l1.322666-0.042667v0.106667L437.333333 938.666667c-17.664 0-32-23.893333-32-53.333334s14.336-53.333333 32-53.333333l18.837334 0.170667z" fill="#FF5C00" p-id="4894"></path><path d="M426.666667 885.333333a53.333333 32 90 1 0 64 0 53.333333 32 90 1 0-64 0Z" fill="#ED0808" p-id="4895"></path><path d="M818.837333 832.170667l-2.24 0.426666C801.173333 836.373333 789.333333 858.538667 789.333333 885.333333c0 29.44 14.336 53.333333 32 53.333334l1.322667-0.042667v0.106667L800 938.666667c-17.664 0-32-23.893333-32-53.333334s14.336-53.333333 32-53.333333l18.837333 0.170667z" fill="#FF5C00" p-id="4896"></path><path d="M789.333333 885.333333a53.333333 32 90 1 0 64 0 53.333333 32 90 1 0-64 0Z" fill="#ED0808" p-id="4897"></path><path d="M855.04 174.528l28.842667-1.493333a21.333333 21.333333 0 0 1 22.4 22.677333l-2.261334 34.922667a21.333333 21.333333 0 0 1-15.786666 19.242666 22.613333 22.613333 0 0 0-11.754667-0.213333c-3.626667 0.981333-8.704 3.434667-15.168 7.381333h-0.106667a21.333333 21.333333 0 0 1-26.816-20.821333l0.426667-40.618667a21.333333 21.333333 0 0 1 20.245333-21.077333zM482.901333 194.602667l-27.093333 0.810666a21.333333 21.333333 0 0 0-20.693333 21.333334l0.042666 28.778666c0 7.338667 4.629333 13.866667 11.541334 16.341334a22.613333 22.613333 0 0 1 11.733333-0.213334c3.626667 0.981333 8.704 3.413333 15.168 7.36l2.197333 0.597334a21.333333 21.333333 0 0 0 26.773334-19.178667l2.261333-33.066667a21.333333 21.333333 0 0 0-21.930667-22.762666z" fill="#FFB333" p-id="4898"></path><path d="M567.168 682.666667a42.666667 42.666667 0 0 1 16.938667 3.498666l240.554666 104.042667 0.512 0.256c5.461333 1.066667 8.746667 2.837333 9.898667 5.333333v16.490667c13.418667 6.613333 20.373333 13.653333 20.885333 21.077333 0.746667 11.136-6.037333 52.373333-13.738666 65.194667-7.701333 12.8-21.248 10.112-25.728-8.426667-4.48-18.56-2.816-49.024-8.042667-52.586666-5.226667-3.584-14.592-5.888-21.674667 1.258666-10.026667 10.090667-16.810667 32.64-15.786666 51.434667-6.869333-9.749333-0.042667-54.016 2.197333-62.954667 1.493333-5.973333 7.466667-10.816 17.92-14.549333l0.042667-2.090667H472.405333v1.642667c12.202667 6.037333 19.050667 12.373333 20.586667 19.072l0.298667 2.005333c0.746667 11.136-6.037333 52.373333-13.738667 65.194667-7.701333 12.8-21.248 10.112-25.728-8.426667-4.48-18.56-2.816-49.024-8.042667-52.586666-5.226667-3.584-14.592-5.888-21.674666 1.258666-10.026667 10.090667-16.810667 32.64-15.786667 51.434667-6.869333-9.749333-0.042667-54.016 2.197333-62.954667 1.493333-5.973333 7.466667-10.816 17.92-14.549333l0.085334-2.858667a42.666667 42.666667 0 0 1-10.88-3.712l-138.133334-69.12c-1.664 16.704-7.189333 44.693333-13.290666 54.826667-7.701333 12.842667-21.248 10.133333-25.728-8.405333-4.48-18.56-2.816-49.024-8.042667-52.586667-5.226667-3.584-14.592-5.888-21.674667 1.258667-10.026667 10.090667-16.810667 32.64-15.786666 51.434666-6.869333-9.749333-0.042667-54.016 2.197333-62.954666 1.493333-5.973333 7.466667-10.816 17.92-14.549334l0.021333-1.173333-4.053333-2.026667a10.666667 10.666667 0 0 1 4.778667-20.202666h351.317333z m-32.021333 21.312L261.034667 704l166.165333 83.072a21.333333 21.333333 0 0 0 9.536 2.261333h125.696a36.394667 36.394667 0 0 1-1.92-5.866666c-4.48-18.56-2.837333-49.024-8.064-52.586667-5.226667-3.584-14.592-5.888-21.674667 1.258667-10.026667 10.090667-16.810667 32.64-15.786666 51.434666-6.869333-9.749333-0.042667-54.016 2.197333-62.954666 1.493333-5.973333 7.466667-10.816 17.92-14.549334l0.042667-2.090666z m54.293333 7.744c6.656 4.8 10.154667 9.792 10.517333 14.976 0.746667 11.136-6.037333 52.373333-13.738666 65.194666l1.322666-2.581333 181.333334 0.021333z" fill="#FF962A" p-id="4899"></path><path d="M298.453333 452.736v42.666667c0 4.693333-3.818667 8.661333-8.533333 8.832l-16.554667 0.554666a8.192 8.192 0 0 1-8.533333-8.234666v-42.666667l-16.661333 0.576a8.192 8.192 0 0 1-8.533334-8.234667v-17.066666c0-4.693333 3.818667-8.661333 8.533334-8.832l66.965333-2.304c4.693333-0.170667 8.533333 3.52 8.533333 8.234666v17.066667c0 4.714667-3.84 8.661333-8.533333 8.832l-16.682667 0.576z m83.157334-31.552l36.16 66.069333a8.746667 8.746667 0 0 1-3.477334 11.669334 8.746667 8.746667 0 0 1-4.053333 1.152l-72.32 2.496a8.192 8.192 0 0 1-8.533333-8.234667 8.746667 8.746667 0 0 1 1.024-4.074667l36.16-68.544a8.746667 8.746667 0 0 1 11.562666-3.882666 8.106667 8.106667 0 0 1 3.477334 3.349333z m93.333333 76.650667c-23.210667 0.810667-42.026667-17.642667-42.026667-41.216 0-23.552 18.816-43.306667 42.026667-44.117334 23.210667-0.789333 42.026667 17.664 42.026667 41.216 0 23.573333-18.816 43.306667-42.026667 44.117334z" fill="#FC280E" p-id="4900"></path><path d="M293.504 437.44v42.666667c0 4.693333-3.84 8.661333-8.533333 8.832l-16.554667 0.554666a8.192 8.192 0 0 1-8.533333-8.234666v-42.666667l-16.682667 0.576a8.192 8.192 0 0 1-8.533333-8.234667v-17.066666c0-4.693333 3.84-8.661333 8.533333-8.832l66.986667-2.304c4.693333-0.170667 8.533333 3.52 8.533333 8.234666v17.066667c0 4.693333-3.84 8.661333-8.533333 8.832l-16.682667 0.576z m83.136-31.552l36.16 66.048a8.746667 8.746667 0 0 1-3.477333 11.690667 8.746667 8.746667 0 0 1-4.053334 1.152l-72.298666 2.496a8.192 8.192 0 0 1-8.533334-8.234667 8.746667 8.746667 0 0 1 1.024-4.074667l36.16-68.544a8.746667 8.746667 0 0 1 11.541334-3.882666 8.106667 8.106667 0 0 1 3.477333 3.349333z m93.333333 76.650667c-23.210667 0.810667-42.026667-17.642667-42.026666-41.216 0-23.552 18.816-43.306667 42.026666-44.117334 23.210667-0.789333 42.026667 17.664 42.026667 41.216 0 23.573333-18.816 43.306667-42.026667 44.117334z" fill="#FFECDB" p-id="4901"></path></svg>