<?xml version="1.0" standalone="no"?><!DOCTYPE svg PUBLIC "-//W3C//DTD SVG 1.1//EN" "http://www.w3.org/Graphics/SVG/1.1/DTD/svg11.dtd"><svg t="1638632437979" class="icon" viewBox="0 0 1024 1024" version="1.1" xmlns="http://www.w3.org/2000/svg" p-id="2435" xmlns:xlink="http://www.w3.org/1999/xlink" width="200" height="200"><defs><style type="text/css"></style></defs><path d="M685.832 841.145c0 8.13-6.591 14.72-14.72 14.72H177.978c-8.13 0-14.72-6.591-14.72-14.72l44.161-565.509c0-8.13 7.817-14.72 15.947-14.72h406.038c8.13 0 15.947 6.591 15.947 14.72l40.481 565.509z" fill="#F44444" p-id="2436"></path><path d="M653.16 860.865H160.026c-10.874 0-19.72-8.847-19.72-19.721 0-0.13 0.005-0.26 0.015-0.39l44.147-565.331c0.13-10.417 9.862-19.508 20.946-19.508h406.038c11.09 0 20.826 9.101 20.946 19.525l40.469 565.346c0.009 0.119 0.013 0.238 0.013 0.357 0 10.876-8.847 19.722-19.72 19.722z m-502.852-19.546c0.094 5.279 4.417 9.546 9.718 9.546H653.16c5.306 0 9.632-4.273 9.719-9.56l-40.467-565.313a4.731 4.731 0 0 1-0.013-0.357c0-5.087-5.218-9.72-10.947-9.72H205.414c-5.729 0-10.947 4.633-10.947 9.72 0 0.13-0.005 0.26-0.015 0.389l-44.144 565.295z" p-id="2437"></path><path d="M496.988 264.956h-0.037a5 5 0 0 1-4.964-5.036c0.234-32.638-8.617-63.328-24.922-86.416-15.948-22.582-37.117-35.106-59.607-35.267l-0.438-0.001c-46.894 0-85.35 53.907-85.826 120.461a5 5 0 0 1-4.999 4.964h-0.037a5 5 0 0 1-4.964-5.036c0.249-34.711 10.218-67.335 28.072-91.863 18.096-24.86 42.141-38.527 67.748-38.527l0.515 0.002c25.801 0.185 49.846 14.212 67.704 39.499 17.501 24.781 27.002 57.544 26.754 92.255a5 5 0 0 1-4.999 4.965z" p-id="2438"></path><path d="M193.695 764.005a5 5 0 0 1-4.991-5.39l0.784-10.04c0.214-2.753 2.628-4.819 5.374-4.595a5 5 0 0 1 4.596 5.374l-0.784 10.04a5 5 0 0 1-4.979 4.611zM233.539 835.54h-30.786c-10.25 0-18.589-8.339-18.589-18.589 0-0.13 0.005-0.26 0.015-0.39l2.979-38.153c0.214-2.753 2.629-4.824 5.374-4.595a5 5 0 0 1 4.596 5.374l-2.962 37.937c0.092 4.656 3.909 8.416 8.587 8.416h30.786a5 5 0 1 1 0 10zM196.772 724.608a5 5 0 0 1-4.991-5.389l1.816-23.262a4.993 4.993 0 0 1 5.374-4.596 5 5 0 0 1 4.596 5.373l-1.816 23.262a5 5 0 0 1-4.979 4.612z" fill="#FFFFFF" p-id="2439"></path><path d="M869.92 873.318H490.387c-14.518 0-26.329-11.812-26.329-26.329 0-0.39 0.015-0.779 0.045-1.168l33.953-434.789c0.412-13.954 12.729-25.607 27.263-25.607H837.82c14.555 0 26.886 11.687 27.264 25.668l31.127 434.825c0.025 0.356 0.038 0.714 0.038 1.071 0 14.518-11.811 26.329-26.329 26.329z m-375.529-30h371.558l-30.631-427.894H527.805l-33.414 427.894z" fill="#FFFFFF" p-id="2440"></path><path d="M749.726 414.686h-0.109c-8.284-0.059-14.951-6.823-14.893-15.106 0.163-22.809-5.924-44.115-17.139-59.996-10.145-14.363-23.229-22.327-36.847-22.425l-0.253-0.001c-13.528 0-26.626 7.767-36.91 21.896-11.442 15.718-17.833 36.936-17.996 59.744-0.06 8.247-6.765 14.893-14.998 14.893h-0.109c-8.284-0.059-14.951-6.823-14.893-15.107 0.208-29.026 8.64-56.438 23.741-77.184 16.194-22.248 38.118-34.447 61.633-34.239 23.55 0.168 45.262 12.64 61.137 35.117 14.803 20.96 22.841 48.489 22.634 77.516-0.06 8.247-6.765 14.892-14.998 14.892z" fill="#FFFFFF" p-id="2441"></path><path d="M893.836 844.536c0 6.257-5.072 11.329-11.329 11.329H502.974c-6.257 0-11.329-5.072-11.329-11.329l33.988-435.235c0-6.257 6.016-11.329 12.273-11.329h312.501c6.257 0 12.273 5.072 12.273 11.329l31.156 435.235z" fill="#F4DD50" p-id="2442"></path><path d="M868.691 860.865H489.158c-9.004 0-16.329-7.325-16.329-16.329 0-0.13 0.005-0.26 0.015-0.39l33.974-435.061c0.127-8.757 7.984-16.113 17.271-16.113H836.59c9.294 0 17.156 7.367 17.272 16.132l31.144 435.075c0.009 0.119 0.013 0.238 0.013 0.357 0.001 9.004-7.325 16.329-16.328 16.329z m-385.859-16.162a6.337 6.337 0 0 0 6.327 6.162h379.533a6.336 6.336 0 0 0 6.326-6.176l-31.141-435.032a4.731 4.731 0 0 1-0.013-0.357c0-3.253-3.535-6.329-7.273-6.329H524.09c-3.738 0-7.272 3.076-7.272 6.329 0 0.13-0.006 0.26-0.016 0.389l-33.97 435.014z" p-id="2443"></path><path d="M748.496 402.233h-0.037a5 5 0 0 1-4.964-5.036c0.362-50.745-28.309-92.237-63.914-92.491l-0.329-0.001c-35.457 0-64.539 40.978-64.902 91.568a5 5 0 0 1-4.999 4.964h-0.037a5 5 0 0 1-4.964-5.036c0.193-26.954 7.945-52.3 21.827-71.37 14.15-19.439 32.984-30.126 53.07-30.126l0.406 0.001c20.238 0.145 39.075 11.114 53.039 30.887 13.607 19.267 20.995 44.722 20.803 71.676a5 5 0 0 1-4.999 4.964z" p-id="2444"></path><path d="M515.742 787.357a5 5 0 0 1-4.991-5.39l0.546-6.987a4.998 4.998 0 0 1 5.374-4.595 4.999 4.999 0 0 1 4.595 5.374l-0.546 6.987a4.998 4.998 0 0 1-4.978 4.611zM543.468 837.139h-21.424c-7.971 0-14.456-6.485-14.456-14.456 0-0.13 0.005-0.26 0.015-0.39l2.073-26.551c0.215-2.753 2.622-4.818 5.374-4.595a4.998 4.998 0 0 1 4.595 5.374l-2.055 26.32a4.46 4.46 0 0 0 4.453 4.297h21.424c2.762 0 5 2.238 5 5a5 5 0 0 1-4.999 5.001zM517.883 759.94a4.998 4.998 0 0 1-4.991-5.389l1.264-16.188c0.215-2.754 2.64-4.816 5.373-4.596a4.998 4.998 0 0 1 4.596 5.373l-1.264 16.188a4.999 4.999 0 0 1-4.978 4.612z" fill="#FFFFFF" p-id="2445"></path><path d="M792.14 600.236c-14.539-9.986-29.575-16.204-45.147-11.323 0.016-1.19-3.227 2.729-3.289 1.54a55.212 55.212 0 0 0-3.443 0.954c0.159-11.565-3.391-23.156-10.244-32.982a56.2 56.2 0 0 0-10.226-10.759c-11.327-7.768-25.273-11.261-39.014-9.25-20.247 2.822-36.149 16.833-43.82 35.482-8.028 19.128-7.986 42.774-4.32 64.893 3.581 20.563 10.226 39.68 16.692 52.698 3.166 6.439 6.272 11.157 8.964 13.891 10.054 5.237 39.989 9.484 70.978 5.612 21.961-2.788 44.627-9.526 60.771-22.86 15.507-12.814 24.372-32.065 21.271-52.271-1.942-13.271-8.047-26.656-19.173-35.625z" fill="#F44444" p-id="2446"></path><path d="M811.685 635.362c-1.943-13.271-8.048-26.656-19.173-35.625a127.617 127.617 0 0 0-3.361-2.229c9.672 8.893 15.069 21.314 16.873 33.638 3.101 20.206-5.765 39.457-21.271 52.271-16.143 13.335-38.809 20.072-60.771 22.86-28.122 3.513-55.376 0.341-67.692-4.19 0.819 1.084 1.614 2.02 2.374 2.793 10.054 5.237 39.989 9.484 70.978 5.612 21.961-2.788 44.627-9.526 60.771-22.86 15.507-12.813 24.372-32.064 21.272-52.27z" fill="#9B2F2F" p-id="2447"></path><path d="M705.591 713.99c-22.988 0.001-43.241-3.749-49.882-8.694-4.432-3.299-8.651-10.684-11.41-16.297-7.453-15.004-13.619-34.46-16.912-53.371-3.017-18.201-4.686-44.457 4.478-66.29 8.361-20.325 25.478-34.16 45.781-36.989 20.851-3.058 42.498 6.222 55.123 23.633 6.438 9.231 10.161 20.172 10.666 31.159 16.832-4.261 34.316-0.791 48.441 9.728 7.699 5.733 13.884 13.278 17.883 21.818a2.499 2.499 0 1 1-4.527 2.121c-3.651-7.796-9.302-14.688-16.342-19.93-13.72-10.216-30.907-13.154-47.153-8.062a2.5 2.5 0 0 1-3.248-2.42c0.151-11.05-3.327-22.243-9.795-31.518-11.518-15.884-31.289-24.368-50.341-21.581-18.54 2.584-34.187 15.278-41.87 33.959-8.71 20.75-7.072 46.001-4.166 63.533 3.163 18.164 9.319 37.609 16.465 51.994 3.51 7.141 7.121 12.423 9.914 14.502 7.09 5.278 38.272 10.341 70.993 6.25 17.507-2.223 42.043-7.897 59.488-22.307 15.593-12.885 23.216-31.563 20.393-49.965a51.932 51.932 0 0 0-1.195-5.82 2.501 2.501 0 0 1 4.832-1.286 56.923 56.923 0 0 1 1.308 6.365c3.091 20.141-5.189 40.543-22.152 54.56-18.369 15.172-43.881 21.106-62.049 23.413-8.263 1.034-16.664 1.495-24.723 1.495z" p-id="2448"></path><path d="M700.588 546.955c-0.183 0-0.368-0.021-0.554-0.063a48.001 48.001 0 0 0-4.786-0.832 2.499 2.499 0 0 1-2.18-2.783 2.494 2.494 0 0 1 2.783-2.18c1.762 0.214 3.541 0.523 5.286 0.918a2.5 2.5 0 0 1-0.549 4.94zM718.296 554.711c-0.487 0-0.979-0.142-1.412-0.438a49.15 49.15 0 0 0-11.738-5.921 2.5 2.5 0 0 1 1.633-4.727 54.181 54.181 0 0 1 12.934 6.524 2.499 2.499 0 0 1-1.417 4.562z" fill="#FFFFFF" p-id="2449"></path><path d="M366.973 418.13c-17.441 5.644-32.095 14.086-37.947 30.006-0.97-0.768 0.202 4.388-0.816 3.685a57.716 57.716 0 0 0-1.397 3.441c-9.425-7.463-21.222-11.887-33.659-12.472a58.384 58.384 0 0 0-15.344 1.602c-13.578 4.405-25.297 13.677-32.351 26.27-10.511 18.465-9.052 40.445 1.445 58.585 10.665 18.738 30.168 33.694 50.709 44.697 19.206 10.087 39.165 16.732 53.985 19.66 7.311 1.475 13.165 1.907 17.124 1.423 10.688-4.961 33.162-26.924 49.619-54.902 11.626-19.856 20.446-42.795 19.697-64.545-0.724-20.895-10.96-40.401-29.567-50.657-12.164-6.814-27.058-10.271-41.498-6.793z" fill="#F4DD50" p-id="2450"></path><path d="M408.294 424.3c-12.162-6.813-27.056-10.27-41.496-6.792-1.34 0.434-2.662 0.886-3.966 1.355 13.456-2.328 27.107 1.101 38.402 7.428 18.608 10.256 28.844 29.762 29.567 50.657 0.749 21.75-8.071 44.689-19.697 64.545-14.934 25.39-34.824 45.825-46.364 53.097 1.412 0.012 2.687-0.048 3.806-0.185 10.688-4.961 33.162-26.924 49.619-54.902 11.626-19.856 20.446-42.795 19.697-64.545-0.724-20.896-10.96-40.402-29.568-50.658z" fill="#B7A448" p-id="2451"></path><path d="M360.537 597.739c-4.676 0-9.94-0.816-14.161-1.668-17.078-3.373-37.001-10.626-54.653-19.897-16.892-9.048-39.559-24.308-51.719-45.674-11.424-19.741-11.967-42.572-1.445-61.058 10.69-19.082 32.008-31.001 54.323-30.369 11.707 0.551 23.098 4.438 32.471 11.021 7.136-16.594 21.079-28.818 38.705-33.787 9.586-2.704 19.704-3.013 29.26-0.896a2.5 2.5 0 0 1-1.081 4.881c-8.753-1.939-18.027-1.653-26.822 0.826-17.141 4.832-30.48 17.147-36.599 33.788a2.502 2.502 0 0 1-3.898 1.097c-9.021-7.143-20.465-11.381-32.225-11.935-20.421-0.569-39.979 10.34-49.779 27.832-9.642 16.939-9.105 37.91 1.428 56.111 11.58 20.346 33.431 35.018 49.726 43.745 16.971 8.913 36.898 16.174 53.289 19.412 8.121 1.639 14.777 2.01 18.274 1.024 8.858-2.496 32.822-24.989 50.211-54.554 9.274-15.841 20.163-39.666 19.353-63.192-0.729-21.045-11.299-39.196-28.275-48.553a54.144 54.144 0 0 0-5.562-2.71 2.5 2.5 0 1 1 1.929-4.613 59.085 59.085 0 0 1 6.062 2.953c18.517 10.207 30.053 29.93 30.843 52.751 0.852 24.723-10.427 49.479-20.038 65.895-16.89 28.715-41.999 53.688-53.167 56.836-1.855 0.523-4.077 0.734-6.45 0.734z" p-id="2452"></path><path d="M244.412 497.478l-0.13-0.003a2.5 2.5 0 0 1-2.368-2.625 53.46 53.46 0 0 1 1.579-10.446 2.495 2.495 0 0 1 3.04-1.805 2.5 2.5 0 0 1 1.805 3.04 48.477 48.477 0 0 0-1.431 9.468 2.5 2.5 0 0 1-2.495 2.371z" fill="#FFFFFF" p-id="2453"></path><path d="M245.917 487.522a2.5 2.5 0 0 1-2.424-3.119 52.758 52.758 0 0 1 2.961-8.492c0.564-1.26 2.045-1.824 3.304-1.26 1.26 0.565 1.824 2.044 1.26 3.304a47.643 47.643 0 0 0-2.68 7.684 2.501 2.501 0 0 1-2.421 1.883z" fill="#FFFFFF" p-id="2454"></path><path d="M247.633 482.1a2.5 2.5 0 0 1-2.28-3.524l0.112-0.25c1.222-2.726 2.57-5.686 3.299-6.968a2.5 2.5 0 1 1 4.346 2.472c-0.709 1.247-2.433 5.093-3.083 6.541l-0.112 0.252a2.499 2.499 0 0 1-2.282 1.477zM259.074 464.267a2.498 2.498 0 0 1-1.782-4.252 54.865 54.865 0 0 1 4.1-3.765 2.503 2.503 0 0 1 3.521 0.328 2.502 2.502 0 0 1-0.328 3.521 50.035 50.035 0 0 0-3.727 3.421 2.495 2.495 0 0 1-1.784 0.747zM267.662 457.221a2.5 2.5 0 0 1-1.377-4.589 56.216 56.216 0 0 1 13.549-6.506 2.5 2.5 0 0 1 1.543 4.755 51.179 51.179 0 0 0-12.343 5.927 2.49 2.49 0 0 1-1.372 0.413z" fill="#FFFFFF" p-id="2455"></path></svg>