<?xml version="1.0" standalone="no"?><!DOCTYPE svg PUBLIC "-//W3C//DTD SVG 1.1//EN" "http://www.w3.org/Graphics/SVG/1.1/DTD/svg11.dtd"><svg t="1639580881077" class="icon" viewBox="0 0 1024 1024" version="1.1" xmlns="http://www.w3.org/2000/svg" p-id="6764" xmlns:xlink="http://www.w3.org/1999/xlink" width="200" height="200"><defs><style type="text/css"></style></defs><path d="M512.058286 0C229.535905 0 0.470454 229.06545 0.470454 511.587832c0 173.98899 86.896657 327.673505 219.631385 420.099041 0.562047-1.96092 1.190707-3.880207 1.790224-5.811984 0.378861-1.215687 0.732743-2.443864 1.124094-3.651225 1.336423-4.134169 2.743623-8.226705 4.250742-12.256792 0.079103-0.216492 0.174859-0.428821 0.253962-0.64115 1.432179-3.805268 2.947625-7.560575 4.529684-11.278413 0.487108-1.140748 0.999195-2.264842 1.498793-3.397263a275.132502 275.132502 0 0 1 10.025256-20.462681c0.507924-0.936745 0.995032-1.881817 1.511282-2.810236a275.752836 275.752836 0 0 1 13.31011-21.532651c0.636987-0.932582 1.298953-1.844347 1.944267-2.768603a291.356931 291.356931 0 0 1 7.785394-10.558161c0.999195-1.290627 1.994227-2.57709 3.014239-3.8469l0.179022-341.141821h0.066613c-0.07494-2.435538-0.183186-4.858586-0.183186-7.31494 0-10.208442 0.707763-20.246188 1.940104-30.121566 0.137389-1.182381 0.295595-2.352272 0.449638-3.530489 0.241472-1.736101 0.491271-3.468039 0.770212-5.195814 6.652973-43.310939 25.113101-82.208767 51.554298-114.003984 44.176908-53.735874 111.156279-88.016588 186.145863-88.016588 102.200994-6.961058 249.71548 89.336358 241.218159 248.183381-0.03747 0.020817-0.079103 0.041633-0.11241 0.066613l0.170696 341.312517c1.090788 1.35724 2.144106 2.73946 3.205751 4.117516 0.503761 0.645313 0.999195 1.303117 1.494629 1.952593a279.037689 279.037689 0 0 1 6.615503 9.113491c0.287269 0.416331 0.587027 0.824336 0.874296 1.240667a276.831134 276.831134 0 0 1 13.97624 22.627603l0.345555 0.64115a272.613698 272.613698 0 0 1 6.498931 12.59402c1.773571 3.651225 3.476366 7.348246 5.100057 11.091065l0.416332 0.945072a288.400979 288.400979 0 0 1 9.617251 25.737597c0.095756 0.291432 0.183186 0.595354 0.274779 0.890949 0.811846 2.568764 1.640345 5.133364 2.385578 7.743761-0.033306 0.020817-0.066613 0.041633-0.091593 0.066613 132.718074-92.425536 219.598078-246.097561 219.598078-420.074061C1023.646118 229.061287 794.584832 0 512.058286 0z" fill="#F5A854" p-id="6765"></path><path d="M276.052594 826.725604a266.868327 266.868327 0 0 1 8.355768-9.392433l0.17486-0.179023a271.239805 271.239805 0 0 1 8.47234-8.62222c0.924255-0.907602 1.873491-1.786061 2.810236-2.67701a279.216712 279.216712 0 0 1 9.667212-8.767936c0.278942-0.241472 0.549557-0.491271 0.832662-0.732743v0.03747c24.259622-20.795746 52.353654-37.586385 83.557681-49.73493 2.052513-0.795193 4.109189-1.586222 6.186682-2.343945 2.031696-0.74107 4.075883-1.465486 6.132559-2.169086 2.081656-0.707763 4.188292-1.386383 6.294929-2.056676 2.04835-0.65364 4.088373-1.311443 6.161702-1.927614 2.531294-0.749396 5.095894-1.440506 7.660495-2.131616 2.997585-0.803519 6.011823-1.573732 9.055204-2.302312 2.660357-0.632823 5.324877-1.26981 8.01854-1.844347 2.006717-0.428821 4.03425-0.807683 6.061783-1.199034a325.695932 325.695932 0 0 1 13.480806-2.343945 331.895104 331.895104 0 0 1 8.268338-1.153237c1.773571-0.228982 3.534652-0.470454 5.320714-0.674457a367.570528 367.570528 0 0 1 13.7764-1.315607H512.241472v-0.116573l-0.174859 0.004164c-130.569805 0-236.800885-103.916278-240.681092-233.553501h-0.066613l-0.179022 341.141821c0.932582-1.157401 1.894307-2.289822 2.843542-3.43057 0.686947-0.840989 1.365566-1.690305 2.069166-2.51464z" fill="#B0C21E" p-id="6766"></path><path d="M511.954204 243.578757l0.104082-0.237308c-74.993747 0-141.973117 34.276551-186.145862 88.016588 45.375942-54.556046 114.045618-88.274714 186.04178-87.77928zM273.58375 450.553672c0.228982-1.740265 0.507924-3.468039 0.770213-5.195814-0.274779 1.727775-0.528741 3.459713-0.770213 5.195814zM512.058286 725.074167l0.174859-0.004163c130.382456-0.091593 236.459493-103.799706 240.50207-233.228763-63.977622 39.243383-230.680815-18.260288-280.103497-105.802259-68.915311 113.391977-137.243594 143.717545-200.846519 105.365111a237.974939 237.974939 0 0 1 1.353077-37.319932 242.945934 242.945934 0 0 0-1.940104 30.121565c0 2.452191 0.112409 4.879402 0.183186 7.31494 3.876044 129.637223 110.107124 233.553501 240.676928 233.553501z" fill="#FCE9EA" p-id="6767"></path><path d="M512.058286 243.578757c6.015986 41.304223-8.497321 89.219785-39.414078 142.443572l-0.01249 0.020817c49.422682 87.541971 216.125875 145.045642 280.103497 105.802258-4.042576 129.429057-110.115451 233.133006-240.50207 233.228763v0.116573h25.787558c4.62544 0.345555 9.205084 0.799356 13.755584 1.315607 1.798551 0.204002 3.572122 0.449638 5.358183 0.67862 2.747786 0.353882 5.478919 0.72858 8.197562 1.140747 2.04835 0.312248 4.084209 0.645313 6.115906 0.990869 2.448028 0.424658 4.879402 0.874296 7.30245 1.344749 2.065003 0.399678 4.134169 0.786866 6.182519 1.228178 2.57709 0.549557 5.116711 1.157401 7.664658 1.765244 3.29318 0.782703 6.553054 1.615365 9.796275 2.493824 2.389741 0.649477 4.787809 1.290627 7.156734 1.990064 2.144106 0.632823 4.254905 1.31977 6.374031 1.994226 2.02337 0.645313 4.042576 1.298953 6.040966 1.977574 2.123289 0.72858 4.229925 1.473813 6.328235 2.235698 1.990063 0.72858 3.955147 1.482139 5.920231 2.248189 30.64198 11.911237 58.286374 28.323014 82.2504 48.598346v-0.104083c0.828499 0.699436 1.627855 1.440506 2.448028 2.152433a296.840013 296.840013 0 0 1 9.89203 8.992755c0.736906 0.7036 1.477976 1.39471 2.206556 2.102473a273.979265 273.979265 0 0 1 17.448442 18.684946c0.399678 0.462128 0.782703 0.945072 1.174054 1.415526 1.24483 1.482139 2.493824 2.964278 3.705348 4.471398l-0.170696-341.312517 0.11241-0.066613c8.497321-158.847023-139.021329-255.144439-241.218159-248.183381l-0.104083 0.237309 0.099919-0.004164z" fill="#7EA701" p-id="6768"></path><path d="M716.460274 795.192675c-23.964026-20.275332-51.608421-36.687109-82.250401-48.598346 0.786866 0.303922 1.569569 0.61617 2.352272 0.928419v133.917108h-251.131006V748.43035c1.486303-0.607844 2.989258-1.186544 4.48805-1.773571-31.204027 12.148546-59.298059 28.939185-83.55768 49.73493v183.701998c62.953447 27.677701 132.522398 43.081957 205.696777 43.081957 81.401085 0 158.339099-19.047154 226.663219-52.874068a509.006578 509.006578 0 0 1-22.265395 10.287545v-185.396466zM791.449857 896.282064l0.416332 0.945072-0.416332-0.945072zM785.554607 883.554818zM738.929671 970.197513l0 0zM801.479277 922.960571c0.095756 0.291432 0.183186 0.595354 0.274779 0.890948-0.091593-0.295595-0.179022-0.595354-0.274779-0.890948zM258.391823 849.840314c0.636987-0.932582 1.298953-1.844347 1.944267-2.768603-0.649477 0.920092-1.30728 1.836021-1.944267 2.768603zM227.262736 909.962709c0.079103-0.216492 0.174859-0.428821 0.253962-0.64115-0.079103 0.216492-0.174859 0.424658-0.253962 0.64115zM221.892063 925.870726c0.378861-1.215687 0.732743-2.443864 1.124094-3.651225-0.391351 1.211524-0.745233 2.435538-1.124094 3.651225zM243.570431 874.179039c0.507924-0.936745 0.995032-1.881817 1.511282-2.810236-0.516251 0.928419-1.007522 1.877654-1.511282 2.810236zM234.744208 941.533107zM232.050545 898.043146c0.487108-1.140748 0.999195-2.264842 1.498793-3.397263-0.499597 1.132421-1.011685 2.252352-1.498793 3.397263zM237.408728 886.235992zM779.501151 871.95583l0.345555 0.64115c-0.116573-0.208166-0.224819-0.428821-0.345555-0.64115zM282.018621 968.619618zM756.540483 837.025639c0.503761 0.645313 0.999195 1.303117 1.494629 1.952593-0.495434-0.65364-0.990868-1.30728-1.494629-1.952593zM764.650615 848.091723c0.287269 0.416331 0.587027 0.824336 0.874296 1.240667-0.287269-0.416331-0.587027-0.828499-0.874296-1.240667zM299.417104 976.996203zM265.781703 839.573586zM249.644704 950.792314zM265.790029 960.068174zM452.92676 729.312419zM439.433464 731.881183c2.002553-0.428821 4.03425-0.803519 6.061783-1.199034-2.027533 0.387188-4.055066 0.770213-6.061783 1.199034zM467.240228 727.180803c1.773571-0.228982 3.538816-0.470454 5.320713-0.674456-1.786061 0.204002-3.551306 0.445474-5.320713 0.674456zM396.105872 744.308671zM284.583222 817.154148l-0.17486 0.179023 0.17486-0.179023zM293.055562 808.531928c0.924255-0.907602 1.873491-1.786061 2.810236-2.67701-0.936745 0.890949-1.885981 1.769408-2.810236 2.67701zM276.052594 826.725604c-0.7036 0.824336-1.38222 1.673652-2.077493 2.510477 0.695273-0.836826 1.373893-1.686142 2.077493-2.510477zM422.35972 736.027842zM305.53301 797.086982zM408.533359 740.082908c2.04835-0.65364 4.088373-1.311443 6.161703-1.927613-2.069166 0.61617-4.109189 1.273974-6.161703 1.927613zM621.965571 742.110442zM728.800332 806.229616c0.736906 0.7036 1.477976 1.39471 2.206555 2.102473-0.72858-0.707763-1.473813-1.398873-2.206555-2.102473zM551.776287 726.506347c1.798551 0.204002 3.572122 0.449638 5.358183 0.67862-1.781898-0.228982-3.559632-0.474618-5.358183-0.67862zM609.54641 738.138642c2.144106 0.632823 4.254905 1.31977 6.374032 1.994226-2.114963-0.674457-4.229925-1.361403-6.374032-1.994226zM749.633547 828.432562c-0.395515-0.470454-0.778539-0.953399-1.174054-1.415527 0.395515 0.466291 0.778539 0.945072 1.174054 1.415527zM721.864253 799.830605zM578.750388 730.665496c2.065003 0.403841 4.134169 0.786866 6.182519 1.228177-2.04835-0.441311-4.117516-0.832662-6.182519-1.228177zM592.597565 733.654754zM565.332032 728.325714z" fill="#F08519" p-id="6769"></path><path d="M621.965571 742.110442c-1.99839-0.67862-4.017597-1.328097-6.040966-1.977574-2.119126-0.674457-4.234089-1.361403-6.374031-1.994226-2.364761-0.699436-4.766993-1.336423-7.156734-1.990064a330.263086 330.263086 0 0 0-9.796275-2.493824 320.837346 320.837346 0 0 0-7.664658-1.765244c-2.04835-0.437148-4.117516-0.824336-6.182519-1.228178a342.515714 342.515714 0 0 0-13.418356-2.335618c-2.71448-0.416331-5.449776-0.786866-8.197562-1.140747-1.786061-0.228982-3.559632-0.474618-5.358183-0.67862a358.710999 358.710999 0 0 0-13.755584-1.315607h-51.687524a369.252507 369.252507 0 0 0-13.776401 1.315607c-1.781898 0.204002-3.547142 0.445474-5.320713 0.674456a352.66587 352.66587 0 0 0-14.313468 2.127453 355.130551 355.130551 0 0 0-7.435676 1.36973c-2.02337 0.395515-4.055066 0.774376-6.061783 1.199034a374.789712 374.789712 0 0 0-17.073745 4.146659c-2.5646 0.69111-5.129201 1.38222-7.660495 2.131616-2.07333 0.612007-4.113353 1.273974-6.161702 1.927613-2.106636 0.670293-4.213272 1.348913-6.294928 2.056677-2.056676 0.7036-4.100863 1.428016-6.13256 2.169086-2.077493 0.761886-4.134169 1.548752-6.186682 2.343944-1.498792 0.587027-3.001748 1.165727-4.488051 1.773572v133.009505h251.131006v-133.917108l-2.352271-0.928418a304.533815 304.533815 0 0 0-5.92023-2.248189 343.056945 343.056945 0 0 0-6.319909-2.231535z m-109.907285 106.401776a15.225234 15.225234 0 1 1 0-30.454631 15.225234 15.225234 0 0 1 0 30.454631z m0-55.109767a15.225234 15.225234 0 1 1 0-30.454631 15.225234 15.225234 0 0 1 0 30.454631zM306.361509 796.391709v-0.03747l-0.832663 0.732743a281.456574 281.456574 0 0 0-9.667211 8.767936c-0.936745 0.890949-1.885981 1.769408-2.810236 2.67701a280.428236 280.428236 0 0 0-8.472341 8.62222l-0.174859 0.179023a266.868327 266.868327 0 0 0-8.355768 9.392433c-0.7036 0.824336-1.38222 1.673652-2.077493 2.510477-0.949235 1.140748-1.906797 2.273169-2.843542 3.430569-1.020012 1.26981-2.015043 2.556274-3.014238 3.846901a284.2793 284.2793 0 0 0-7.785395 10.55816c-0.645313 0.924255-1.30728 1.836021-1.944267 2.768603a275.752836 275.752836 0 0 0-13.310109 21.532652c-0.516251 0.928419-1.007522 1.873491-1.511283 2.810236a290.861497 290.861497 0 0 0-6.161702 12.05279c-1.33226 2.772766-2.61456 5.578839-3.863554 8.409891-0.499597 1.132421-1.011685 2.256515-1.498793 3.397263-1.582059 3.717838-3.101668 7.473146-4.529684 11.278413-0.083266 0.216492-0.174859 0.428821-0.253962 0.64115a295.170525 295.170525 0 0 0-4.250742 12.256792c-0.391351 1.207361-0.745233 2.435538-1.124094 3.651225-0.599517 1.93594-1.228177 3.855227-1.790224 5.811984l1.315606 0.911765c4.392295 3.043381 8.834549 6.024313 13.326763 8.934469 0.466291 0.299758 0.920092 0.612007 1.386383 0.911765 4.450581 2.864359 8.967775 5.624635 13.509949 8.347442a526.500817 526.500817 0 0 0 16.145326 9.27586 538.070662 538.070662 0 0 0 22.52352 11.682255c3.676205 1.790224 7.37739 3.538816 11.103554 5.245773 2.302312 1.053318 4.621277 2.077493 6.944406 3.097505V796.391709zM804.139634 931.59528c-0.749396-2.610397-1.573732-5.174997-2.385578-7.743761-0.091593-0.295595-0.179022-0.599517-0.274779-0.890948a287.601623 287.601623 0 0 0-9.617252-25.737598l-0.416331-0.945072a284.799714 284.799714 0 0 0-5.100058-11.091064l-0.795192-1.636182a278.117597 278.117597 0 0 0-5.703738-10.957838l-0.345555-0.64115a276.831134 276.831134 0 0 0-13.97624-22.627604c-0.287269-0.416331-0.587027-0.824336-0.874296-1.240667a274.603762 274.603762 0 0 0-6.615503-9.113491c-0.495434-0.649477-0.990868-1.303117-1.494629-1.952593-1.061645-1.378056-2.114963-2.760276-3.205751-4.117516-1.211524-1.507119-2.460518-2.989258-3.705348-4.471398-0.395515-0.470454-0.778539-0.953399-1.174054-1.415526a273.071663 273.071663 0 0 0-17.448443-18.684946c-0.72858-0.707763-1.473813-1.398873-2.206555-2.102473a288.026281 288.026281 0 0 0-9.892031-8.992755c-0.820173-0.711926-1.619529-1.452996-2.448027-2.152432v185.496385a509.006578 509.006578 0 0 0 22.47356-10.387464 512.695273 512.695273 0 0 0 65.11837-38.53562l0.08743-0.058287z" fill="#FEFEFE" p-id="6770"></path><path d="M512.058286 778.177217m-15.225233 0a15.225234 15.225234 0 1 0 30.450467 0 15.225234 15.225234 0 1 0-30.450467 0Z" fill="#F08519" p-id="6771"></path><path d="M512.058286 833.291147m-15.225233 0a15.225234 15.225234 0 1 0 30.450467 0 15.225234 15.225234 0 1 0-30.450467 0Z" fill="#F08519" p-id="6772"></path><path d="M271.785199 491.404093c63.602924 38.348271 131.931208 8.026866 200.846519-105.365111l0.01249-0.020816c30.916758-53.223786 45.434229-101.135186 39.414078-142.443572h-0.104082c-71.996162-0.495434-140.665837 33.21907-186.04178 87.775116-26.445361 31.795217-44.901325 70.693045-51.554298 114.003985-0.262289 1.727775-0.541231 3.451386-0.770213 5.195813-0.154043 1.174054-0.312248 2.348108-0.449637 3.530489a237.558608 237.558608 0 0 0-1.353077 37.324096z" fill="#B0C21E" p-id="6773"></path></svg>