<?xml version="1.0" standalone="no"?><!DOCTYPE svg PUBLIC "-//W3C//DTD SVG 1.1//EN" "http://www.w3.org/Graphics/SVG/1.1/DTD/svg11.dtd"><svg t="1638985079905" class="icon" viewBox="0 0 1024 1024" version="1.1" xmlns="http://www.w3.org/2000/svg" p-id="11851" xmlns:xlink="http://www.w3.org/1999/xlink" width="200" height="200"><defs><style type="text/css"></style></defs><path d="M469.841 709.457h83.49v205.859h-83.49z" fill="#52A3CB" p-id="11852"></path><path d="M567.059 929.045h-110.94V695.729h110.939v233.316zM483.568 901.6h56.041V723.186h-56.041V901.6z" fill="#222323" p-id="11853"></path><path d="M1009.45 708.172c0 28.484-23.964 51.609-53.506 51.609H67.228c-29.558 0-53.5-23.125-53.5-51.609V210.563c0-28.483 23.943-51.608 53.5-51.608h888.716c29.542 0 53.506 23.125 53.506 51.608v497.609z" fill="#F2BA21" p-id="11854"></path><path d="M955.944 773.508H67.228C30.169 773.508 0 744.193 0 708.172V210.563c0-36.03 30.169-65.336 67.228-65.336h888.716c37.063 0 67.228 29.306 67.228 65.336v497.609c0 36.021-30.164 65.336-67.228 65.336zM67.228 172.671c-21.922 0-39.778 16.998-39.778 37.892v497.609c0 20.885 17.856 37.883 39.778 37.883h888.716c21.928 0 39.777-16.998 39.777-37.883V210.563c0-20.894-17.851-37.892-39.777-37.892H67.228z" fill="#222323" p-id="11855"></path><path d="M216.517 901.6H806.66v27.445H216.517z" fill="#222323" p-id="11856"></path><path d="M482.067 623.68c0 24.845-20.159 44.968-44.961 44.968-24.874 0-45.033-20.123-45.033-44.968 0-24.873 20.159-44.996 45.033-44.996 24.802 0 44.961 20.123 44.961 44.996z" fill="#52A3CB" p-id="11857"></path><path d="M437.106 682.363c-32.4 0-58.761-26.324-58.761-58.685 0-32.38 26.36-58.725 58.761-58.725 32.359 0 58.684 26.345 58.684 58.725 0 32.361-26.324 58.685-58.684 58.685z m0-89.953c-17.265 0-31.312 14.024-31.312 31.27 0 17.234 14.046 31.238 31.312 31.238 17.224 0 31.233-14.004 31.233-31.238 0.001-17.244-14.009-31.27-31.233-31.27z" fill="#222323" p-id="11858"></path><path d="M683.354 623.68c0 24.845-20.158 44.968-44.961 44.968-24.879 0-45.032-20.123-45.032-44.968 0-24.873 20.153-44.996 45.032-44.996 24.803 0 44.961 20.123 44.961 44.996z" fill="#52A3CB" p-id="11859"></path><path d="M638.396 682.363c-32.4 0-58.761-26.324-58.761-58.685 0-32.38 26.359-58.725 58.761-58.725 32.358 0 58.684 26.345 58.684 58.725-0.002 32.361-26.326 58.685-58.684 58.685z m0-89.953c-17.266 0-31.312 14.024-31.312 31.27 0 17.234 14.046 31.238 31.312 31.238 17.224 0 31.232-14.004 31.232-31.238 0-17.244-14.01-31.27-31.232-31.27z" fill="#222323" p-id="11860"></path><path d="M338.747 341.945h344.607v176.913H393.646z" fill="#52A3CB" p-id="11861"></path><path d="M697.078 532.575h-313.55l-63.403-204.358h376.953v204.358z m-293.319-27.444h265.869V355.662H357.369l46.39 149.469z" fill="#222323" p-id="11862"></path><path d="M713.875 584.4h-305.54L298.542 276.393h-72.663v-27.445h92.03l109.799 308.007h286.167z" fill="#222323" p-id="11863"></path></svg>