<?xml version="1.0" standalone="no"?><!DOCTYPE svg PUBLIC "-//W3C//DTD SVG 1.1//EN" "http://www.w3.org/Graphics/SVG/1.1/DTD/svg11.dtd"><svg t="1640235206643" class="icon" viewBox="0 0 1024 1024" version="1.1" xmlns="http://www.w3.org/2000/svg" p-id="4514" xmlns:xlink="http://www.w3.org/1999/xlink" width="200" height="200"><defs><style type="text/css"></style></defs><path d="M512 665.6c-3.2 0-9.6 0-12.8-3.2l-416-288c-6.4-3.2-9.6-12.8-9.6-19.2 0-9.6 3.2-16 12.8-19.2l416-256c6.4-3.2 16-3.2 25.6 0l416 256c6.4 3.2 9.6 12.8 12.8 19.2 0 9.6-3.2 16-9.6 19.2l-416 288c-9.6 0-16 3.2-19.2 3.2zM140.8 352L512 611.2 883.2 352 512 124.8 140.8 352z" fill="#FF9F43" p-id="4515"></path><path d="M864 953.6H160c-48 0-89.6-38.4-89.6-89.6V352c0-9.6 6.4-16 12.8-22.4 6.4-3.2 16-3.2 25.6 0L512 611.2l403.2-278.4c6.4-6.4 16-6.4 25.6 0 6.4 3.2 12.8 12.8 12.8 22.4v512c0 44.8-41.6 86.4-89.6 86.4zM121.6 396.8V864c0 22.4 19.2 41.6 41.6 41.6h704c22.4 0 41.6-19.2 41.6-41.6V396.8l-377.6 262.4c-9.6 6.4-19.2 6.4-28.8 0L121.6 396.8z" fill="#e0620d" p-id="4516" data-spm-anchor-id="a313x.7781069.0.i15" class="selected"></path></svg>