<?xml version="1.0" standalone="no"?><!DOCTYPE svg PUBLIC "-//W3C//DTD SVG 1.1//EN" "http://www.w3.org/Graphics/SVG/1.1/DTD/svg11.dtd"><svg t="1638977725676" class="icon" viewBox="0 0 1024 1024" version="1.1" xmlns="http://www.w3.org/2000/svg" p-id="2643" xmlns:xlink="http://www.w3.org/1999/xlink" width="200" height="200"><defs><style type="text/css"></style></defs><path d="M512 512m-512 0a512 512 0 1 0 1024 0 512 512 0 1 0-1024 0Z" p-id="2644" data-spm-anchor-id="a313x.7781069.0.i6" class="selected" fill="#ffffff"></path><path d="M307.2 430.08m51.2 0l307.2 0q51.2 0 51.2 51.2l0 204.8q0 51.2-51.2 51.2l-307.2 0q-51.2 0-51.2-51.2l0-204.8q0-51.2 51.2-51.2Z" fill="#EBBA50" p-id="2645"></path><path d="M512 286.72a122.88 122.88 0 0 1 122.88 122.88v20.48H389.12v-20.48a122.88 122.88 0 0 1 122.88-122.88z" fill="#e16531" p-id="2646" data-spm-anchor-id="a313x.7781069.0.i8" class=""></path><path d="M512 327.68a81.92 81.92 0 0 1 81.92 81.92v20.48H430.08v-20.48a81.92 81.92 0 0 1 81.92-81.92z" p-id="2647" data-spm-anchor-id="a313x.7781069.0.i7" class="selected" fill="#ffffff"></path><path d="M512 542.72m-40.96 0a40.96 40.96 0 1 0 81.92 0 40.96 40.96 0 1 0-81.92 0Z" p-id="2648"></path><path d="M491.52 573.44m20.48 0l0 0q20.48 0 20.48 20.48l0 20.48q0 20.48-20.48 20.48l0 0q-20.48 0-20.48-20.48l0-20.48q0-20.48 20.48-20.48Z" p-id="2649"></path></svg>