<?xml version="1.0" standalone="no"?><!DOCTYPE svg PUBLIC "-//W3C//DTD SVG 1.1//EN" "http://www.w3.org/Graphics/SVG/1.1/DTD/svg11.dtd"><svg t="1638632830416" class="icon" viewBox="0 0 1024 1024" version="1.1" xmlns="http://www.w3.org/2000/svg" p-id="4634" xmlns:xlink="http://www.w3.org/1999/xlink" width="200" height="200"><defs><style type="text/css"></style></defs><path d="M827.86816 197.87264c-13.0304-2.35008-33.19808-6.11328-33.19808-6.11328s-10.24-18.74944-17.24928-30.6944c-5.0688-8.86272-5.632-9.17504-7.95136-9.17504s-3.40992 0.88064-7.81824 9.17504c-7.06048 11.9552-17.43872 30.65856-17.43872 30.65856s-20.4032 4.5568-33.60256 6.90688c-6.4512 1.01888-8.57088 6.44608-5.30944 10.31168 9.27232 10.53184 24.69888 27.93984 24.69888 27.93984s-3.46112 19.13856-4.96128 32.2048c-0.48128 5.03296 4.84864 8.704 8.7808 8.704 1.26976 0 2.65216-0.29184 4.08064-0.94208 11.06944-5.2224 27.8784-13.12768 31.68256-14.92992 3.73248 1.80224 20.3776 9.88672 31.3088 15.08352 1.408 0.6656 2.7904 0.95744 4.04992 0.95744 3.87072 0 8.82176-3.6608 8.38144-8.70912-1.50016-13.08672-3.82976-32.24576-3.82976-32.24576s14.45888-16.65536 23.61856-27.22304c3.23072-3.82464 1.13664-10.88512-5.24288-11.90912z" fill="#EB573E" p-id="4635"></path><path d="M841.32864 75.05408H213.38624c-38.4768 0-69.77024 31.08864-69.77024 69.2992V855.0912c0 38.21056 31.29344 69.2992 69.77024 69.2992h627.94752c38.48704 0 69.77536-31.0784 69.7856-69.2992V144.34816c-0.01024-38.21056-31.3088-69.29408-69.79072-69.29408z m-15.8208 659.90656c-0.02048 39.65952-32.20992 71.7824-71.8592 71.77216l-452.77696-0.29184c-39.6544-0.02048-71.76704-32.20992-71.74144-71.8592l0.07168-211.93216c0.02048-39.66976 32.2048-71.79776 71.86432-71.77728l452.77696 0.29184v-0.00512c39.64928 0.0256 71.77216 32.2048 71.75168 71.86944l-0.08704 211.93216z m43.52-415.67232c0 4.0448-0.77824 7.95136-2.33984 11.648a29.70624 29.70624 0 0 1-6.42048 9.48224 29.48096 29.48096 0 0 1-9.49248 6.39488 29.568 29.568 0 0 1-11.62752 2.35008h-2.63168l-31.70816-18.20672-34.33984 19.71712-34.33984-19.71712-31.70304 18.20672h-2.6368a29.79328 29.79328 0 0 1-27.51488-18.2528 29.696 29.696 0 0 1-2.36032-11.648V142.47424a29.73184 29.73184 0 0 1 8.77056-21.13536 29.48096 29.48096 0 0 1 9.49248-6.39488 29.4144 29.4144 0 0 1 11.60704-2.35008h137.37984a29.7728 29.7728 0 0 1 21.13024 8.76544 29.71136 29.71136 0 0 1 8.73984 21.13536v176.7936z" fill="#EB573E" p-id="4636"></path><path d="M386.7648 647.5776c-4.0704-5.98016-10.368-10.90048-18.88256-14.76096-5.84704-2.62656-16.62464-5.6576-32.32256-9.11872-15.69792-3.45088-25.41056-6.87104-29.14304-10.22976-3.79904-3.33824-5.71392-7.65952-5.74464-12.89728-0.03072-6.03136 2.60608-11.20256 7.92064-15.50336 5.30944-4.31104 13.7984-6.50752 25.472-6.54848 11.20256-0.07168 19.69152 2.24256 25.45152 6.912 5.76 4.67968 9.1648 11.6224 10.20928 20.82816l18.48832-1.50016c-0.37888-8.5504-2.81088-16.18944-7.28576-22.9376-4.48-6.72256-10.86464-11.82208-19.12832-15.25248-8.27904-3.4304-17.8176-5.12-28.62592-5.04832-9.82016 0.06144-18.72384 1.76128-26.7264 5.13024-8.00256 3.35872-14.08 8.24832-18.21184 14.6688-4.14208 6.42048-6.19008 13.312-6.15424 20.6592 0.04096 6.70208 1.78176 12.73856 5.23264 18.12992 3.4304 5.38112 8.6528 9.8816 15.63648 13.47072 5.38624 2.83136 14.78144 5.8112 28.19584 8.94976 13.40416 3.13856 22.07232 5.45792 25.99424 6.95808 6.1184 2.28352 10.50112 5.13024 13.17888 8.52992 2.66752 3.39968 4.01408 7.38304 4.03968 11.96032 0.03072 4.51072-1.32096 8.66304-4.05504 12.4928-2.71872 3.82976-6.90176 6.85056-12.52864 9.06752-5.62176 2.2272-12.1088 3.34848-19.46624 3.38944-8.28928 0.06656-15.75936-1.36192-22.4-4.18304-6.64576-2.8672-11.55584-6.59968-14.73024-11.24864-3.18464-4.6592-5.21728-10.63936-6.12352-17.90976l-18.19136 1.67936c0.32256 9.74848 3.0464 18.45248 8.15616 26.14272 5.12 7.71584 12.14464 13.45024 21.08416 17.23904 8.94464 3.79904 20.00896 5.6576 33.2032 5.5808 10.40896-0.0512 19.7632-2.01216 28.06272-5.86752 8.2944-3.86048 14.64832-9.2416 19.05152-16.11264 4.39296-6.89664 6.5792-14.208 6.528-21.96992-0.0512-7.81824-2.10432-14.73024-6.18496-20.70016z m71.92064-84.28544l-55.15776 146.10944 20.48-0.10752 15.76448-44.26752 60.96384-0.3328 17.2544 44.05248 21.98016-0.128-60.49792-145.44384-20.7872 0.11776z m35.9936 85.71904l-49.41824 0.2816 15.7696-42.85952A186.0608 186.0608 0 0 0 468.72576 578.56c2.29888 7.87968 5.80608 17.93024 10.5216 30.17728l15.43168 40.27392z m79.10912 42.21952l-0.74752-128.5888-19.30752 0.10752 0.83968 145.792 91.08992-0.52224-0.1024-17.19808-71.77216 0.4096z m114.47296-0.65024l-0.28672-49.62816 80.65024-0.45056-0.09728-17.11104-80.65024 0.45056-0.26624-44.65152 86.1184-0.49152-0.09728-17.20832-105.41056 0.59904 0.82944 145.80224 108.78976-0.61952-0.1024-17.20832-89.47712 0.51712z" fill="#EB573E" p-id="4637"></path></svg>