<?xml version="1.0" standalone="no"?><!DOCTYPE svg PUBLIC "-//W3C//DTD SVG 1.1//EN" "http://www.w3.org/Graphics/SVG/1.1/DTD/svg11.dtd"><svg t="1640309080944" class="icon" viewBox="0 0 1024 1024" version="1.1" xmlns="http://www.w3.org/2000/svg" p-id="1789" xmlns:xlink="http://www.w3.org/1999/xlink" width="200" height="200"><defs><style type="text/css"></style></defs><path d="M512 4.096C231.424 4.096 4.096 231.424 4.096 512s227.328 508.416 508.416 508.416 508.416-227.328 508.416-508.416S792.576 4.096 512 4.096z m0 941.568c-239.616 0-433.664-194.048-433.664-433.664S272.384 78.336 512 78.336s433.664 194.048 433.664 433.664-194.048 433.664-433.664 433.664z" fill="#F4DCCB" p-id="1790"></path><path d="M295.936 463.36h432.64c26.624 0 48.64 21.504 48.64 48.64 0 26.624-21.504 48.64-48.64 48.64H295.936c-26.624 0-48.64-21.504-48.64-48.64 0-26.624 21.504-48.64 48.64-48.64z" fill="#FF9D4D" p-id="1791"></path></svg>