<?xml version="1.0" standalone="no"?><!DOCTYPE svg PUBLIC "-//W3C//DTD SVG 1.1//EN" "http://www.w3.org/Graphics/SVG/1.1/DTD/svg11.dtd"><svg t="1638889880571" class="icon" viewBox="0 0 1024 1024" version="1.1" xmlns="http://www.w3.org/2000/svg" p-id="1389" xmlns:xlink="http://www.w3.org/1999/xlink" width="200" height="200"><defs><style type="text/css"></style></defs><path d="M64 127.619858 64 127.619858 64 896.380141C64 931.452058 92.530723 960 127.619858 960L896.380141 960C931.452058 960 960 931.46928 960 896.380141L960 127.619858C960 92.547944 931.46928 64 896.380141 64L127.619858 64C92.547944 64 64 92.530723 64 127.619858L64 127.619858ZM0 127.619858C0 57.137357 57.24888 0 127.619858 0L896.380141 0C966.862643 0 1024 57.24888 1024 127.619858L1024 896.380141C1024 966.862643 966.751117 1024 896.380141 1024L127.619858 1024C57.137357 1024 0 966.751117 0 896.380141L0 127.619858 0 127.619858Z" p-id="1390"></path></svg>