<?xml version="1.0" standalone="no"?><!DOCTYPE svg PUBLIC "-//W3C//DTD SVG 1.1//EN" "http://www.w3.org/Graphics/SVG/1.1/DTD/svg11.dtd"><svg t="1640875243666" class="icon" viewBox="0 0 1024 1024" version="1.1" xmlns="http://www.w3.org/2000/svg" p-id="5886" xmlns:xlink="http://www.w3.org/1999/xlink" width="200" height="200"><defs><style type="text/css"></style></defs><path d="M514.219727 514.505938m-508.819876 0a508.819876 508.819876 0 1 0 1017.639751 0 508.819876 508.819876 0 1 0-1017.639751 0Z" fill="#e16531" p-id="5887" data-spm-anchor-id="a313x.7781069.0.i2" class="selected"></path><path d="M514.219727 514.505938m-355.442485 0a355.442484 355.442484 0 1 0 710.884969 0 355.442484 355.442484 0 1 0-710.884969 0Z" fill="#F8E71C" p-id="5888"></path><path d="M204.221217 194.05754h463.967404v640.896795H204.221217z" fill="#FFFFFF" p-id="5889"></path><path d="M263.92487 348.102758H608.484969v15.531726H263.92487zM263.92487 409.358311H608.484969v15.531726H263.92487zM263.92487 470.607503H608.484969v15.531727H263.92487zM263.92487 531.863056H608.484969v15.531727H263.92487zM263.92487 593.118609H481.28v15.531726H263.92487z" fill="#FE3D50" p-id="5890"></path><path d="M821.133516 588.100373l-15.773417 15.767056-37.054807-37.061168 15.767056-15.767056z" fill="#2283F6" p-id="5891"></path><path d="M659.284273 442.024547m-131.173764 0a131.173764 131.173764 0 1 0 262.347528 0 131.173764 131.173764 0 1 0-262.347528 0Z" fill="#2283F6" p-id="5892"></path><path d="M659.284273 526.908422c-62.794733 0-114.611677-46.385292-123.433341-106.737689a125.246012 125.246012 0 0 0-1.469218 18.17123c0 68.983255 55.919304 124.902559 124.902559 124.902559 68.983255 0 124.902559-55.919304 124.902559-124.902559 0-6.188522-0.597863-12.224398-1.462857-18.17123-8.821665 60.352398-60.644969 106.737689-123.439702 106.737689z" fill="#2283F6" p-id="5893"></path><path d="M597.888795 361.522882a61.395478 31.960248 0 1 0 122.790957 0 61.395478 31.960248 0 1 0-122.790957 0Z" fill="#FFFFFF" p-id="5894"></path><path d="M915.125267 656.333118c51.562534 51.568894 43.389615 61.986981 31.922087 73.454509-11.467528 11.467528-21.885615 19.640447-73.454509-31.928447-51.568894-51.562534-92.261764-94.481491-72.608597-114.134658s62.572124 21.039702 114.141019 72.608596z" fill="#FFFFFF" p-id="5895"></path><path d="M529.344398 312.084671c-71.762683 71.762683-71.762683 188.117068 0 259.879751 71.762683 71.762683 188.117068 71.762683 259.879751 0 71.762683-71.762683 71.762683-188.117068 0-259.879751-71.762683-71.762683-188.117068-71.762683-259.879751 0z m229.827577 229.827577c-55.168795 55.162435-144.606609 55.162435-199.775404 0-55.162435-55.168795-55.162435-144.612969 0-199.775403 55.168795-55.168795 144.606609-55.168795 199.775404 0 55.168795 55.162435 55.168795 144.606609 0 199.775403z" fill="#2283F6" p-id="5896"></path><path d="M759.171975 323.056099c-55.168795-55.168795-144.606609-55.168795-199.775404 0-29.199901 29.199901-42.785391 68.003776-41.068124 106.247951 1.52646-34.001888 15.10559-67.564919 41.068124-93.527454 55.168795-55.168795 144.606609-55.168795 199.775404 0 25.962534 25.962534 39.548025 59.525565 41.068124 93.527454 1.717267-38.244174-11.868224-77.04805-41.068124-106.247951zM789.224149 552.883677c-71.762683 71.762683-188.117068 71.762683-259.879751 0-34.262658-34.269019-52.122236-78.695354-53.667777-123.579627-1.691826 49.126559 16.167752 98.800099 53.667777 136.300124 71.762683 71.762683 188.117068 71.762683 259.879751 0 37.500025-37.500025 55.359602-87.173565 53.667776-136.300124-1.54554 44.884273-19.405118 89.310609-53.667776 123.579627z" fill="#F8E71C" p-id="5897"></path></svg>