<?xml version="1.0" standalone="no"?><!DOCTYPE svg PUBLIC "-//W3C//DTD SVG 1.1//EN" "http://www.w3.org/Graphics/SVG/1.1/DTD/svg11.dtd"><svg t="1638636232251" class="icon" viewBox="0 0 1024 1024" version="1.1" xmlns="http://www.w3.org/2000/svg" p-id="11690" xmlns:xlink="http://www.w3.org/1999/xlink" width="200" height="200"><defs><style type="text/css"></style></defs><path d="M640 816.192a12.8 12.8 0 0 1-12.8 12.8L512 729.984l-115.2 99.008a12.8 12.8 0 0 1-12.8-12.8v-422.4c0-7.04 5.76-12.8 12.8-12.8h230.4c7.04 0 12.8 5.76 12.8 12.8v422.4z" fill="" p-id="11691"></path><path d="M428.8 425.792V742.4L512 670.912 595.2 742.4V425.792H428.8z m120.768 167.616l-34.688-22.656-34.624 22.656 10.816-39.936-32.256-25.92 41.408-2.048 14.656-38.72 14.656 38.72 41.408 2.048-32.256 25.92 10.88 39.936z" fill="#FF6700" p-id="11692"></path><path d="M108.8 108.8h806.4v143.168H108.8z" fill="#FF7B52" p-id="11693"></path><path d="M141.312 158.656h41.344v41.344h-41.344zM205.312 158.656h41.344v41.344h-41.344zM269.312 158.656h41.344v41.344h-41.344z" fill="#FFFFFF" p-id="11694"></path><path d="M937.6 64H86.4a22.528 22.528 0 0 0-22.4 22.4v851.2c0 12.352 10.112 22.4 22.4 22.4h851.2c12.288 0 22.4-10.048 22.4-22.4V516.992a22.4 22.4 0 0 0-44.864 0V915.2H108.8V296.832h806.4v99.2h0.192a22.272 22.272 0 0 0 44.48 0H960V86.4a22.464 22.464 0 0 0-22.4-22.4zM108.8 252.032V108.8h806.4v143.168H108.8z" fill="" p-id="11695"></path></svg>