<?xml version="1.0" standalone="no"?><!DOCTYPE svg PUBLIC "-//W3C//DTD SVG 1.1//EN" "http://www.w3.org/Graphics/SVG/1.1/DTD/svg11.dtd"><svg t="1640272860347" class="icon" viewBox="0 0 1024 1024" version="1.1" xmlns="http://www.w3.org/2000/svg" p-id="2296" xmlns:xlink="http://www.w3.org/1999/xlink" width="200" height="200"><defs><style type="text/css"></style></defs><path d="M478.96598 214.704392l-99.096774-33.032258h-33.032258c0 36.48523-29.579286 66.064516-66.064516 66.064516s-66.064516-29.579286-66.064516-66.064516h-33.032258l-99.096775 33.032258v132.129033l82.578884-27.532167v291.790231H396.387097V319.301258l82.578883 27.532167v-132.129033z" fill="#F9BA48" p-id="2297"></path><path d="M974.449851 99.093251h-924.903226C22.229388 99.093251 0 121.322639 0 148.639876v611.098536c0 27.317237 22.229388 49.550149 49.546625 49.550149H330.322581v82.582407H247.740174v33.032258h528.516129v-33.032258h-82.578884v-82.582407h280.772432c27.317237 0 49.550149-22.229388 49.550149-49.550149V148.639876c0-27.317237-22.232912-49.546625-49.550149-49.546625z m-924.903226 33.032258h924.903226a16.524938 16.524938 0 0 1 16.517891 16.517891v511.998238H33.032258V148.639876c0-9.115142 7.399226-16.514367 16.514367-16.514367zM660.645161 891.867444h-297.290322v-82.582407H660.645161v82.582407z m313.80469-115.614665h-924.903226a16.524938 16.524938 0 0 1-16.514367-16.51789v-66.064517H990.967742v66.064517c0 9.122188-7.399226 16.517891-16.517891 16.51789z" fill="#333333" p-id="2298"></path><path d="M165.16129 346.833425H396.387097v33.032258H165.16129zM165.16129 412.897941H396.387097v33.032258H165.16129zM561.548387 181.672134h396.387097v33.032258h-396.387097zM561.548387 264.254541h396.387097v33.032258h-396.387097zM561.548387 346.833425h330.322581v33.032258h-330.322581zM924.903226 346.833425h33.032258v33.032258H924.903226zM545.030496 627.60938c27.317237 0 49.546625-22.229388 49.546626-49.550149v-16.517891c0-27.317237-22.229388-49.550149-49.546626-49.550149a16.524938 16.524938 0 0 1-16.51789-16.51789v-16.517891a16.524938 16.524938 0 0 1 16.51789-16.517891 16.524938 16.524938 0 0 1 16.514368 16.517891v16.517891h33.032258v-16.517891c0-27.317237-22.229388-49.550149-49.546626-49.550149-27.317237 0-49.546625 22.229388-49.546625 49.550149v16.517891c0 27.317237 22.229388 49.550149 49.546625 49.550148a16.524938 16.524938 0 0 1 16.514368 16.517891v16.517891a16.524938 16.524938 0 0 1-16.514368 16.517891 16.524938 16.524938 0 0 1-16.51789-16.517891v-16.517891h-33.032258v16.517891c0.003523 27.317237 22.232912 49.550149 49.550148 49.550149zM677.159529 429.415831c-27.317237 0-49.546625 22.229388-49.546626 49.550149v148.646923h33.032258v-82.582407h33.032258v82.582407h33.032258v-148.646923c0-27.317237-22.232912-49.550149-49.550148-49.550149z m-16.514368 82.578884v-33.032258a16.524938 16.524938 0 0 1 16.514368-16.517891 16.524938 16.524938 0 0 1 16.51789 16.517891v33.032258H660.645161zM792.774194 429.415831h-33.032259v198.193549h82.578884v-33.032258H792.774194zM875.353077 627.60938h82.582407v-33.032258h-49.550149v-49.550149h33.032258v-33.032258h-33.032258v-49.546626h49.550149v-33.032258h-82.582407z" fill="#333333" p-id="2299"></path></svg>