<?xml version="1.0" standalone="no"?><!DOCTYPE svg PUBLIC "-//W3C//DTD SVG 1.1//EN" "http://www.w3.org/Graphics/SVG/1.1/DTD/svg11.dtd"><svg t="1638975046702" class="icon" viewBox="0 0 1024 1024" version="1.1" xmlns="http://www.w3.org/2000/svg" p-id="1910" xmlns:xlink="http://www.w3.org/1999/xlink" width="200" height="200"><defs><style type="text/css"></style></defs><path d="M336.76 170.295C320.03 162.255 301.604 158 282.5 158 213.188 158 157 214.188 157 283.5c0 0.413 0.002 0.825 0.006 1.237l0.001 0.143C158.558 605.09 418.863 864 739.5 864h1a147.724 147.724 0 0 0 1.732-0.01l0.148-0.004 0.147-0.002C810.975 862.905 866 807.058 866 738.5c0-15.045-2.637-29.677-7.701-43.411L644.037 658.21c-13.136 15.759-22.29 34.553-26.463 54.85l-6.946 33.78-32.494-11.558c-135.18-48.086-242.416-154.829-290.948-289.608l-11.619-32.266 33.525-7.224c22.194-4.783 42.525-15.532 58.975-30.875l-31.306-205.014zM97 283.5C97 181.051 180.051 98 282.5 98c34.88 0 68.41 9.671 97.468 27.645l11.783 7.288 39.957 261.664-9.1 10.48c-18.51 21.315-41.557 38.095-67.353 49.102 42.352 94.737 118.901 170.951 213.958 213.006 9.88-23.71 24.63-45.168 43.334-62.992l10.92-10.406 275.74 47.46 6.816 13.44C919.092 680.453 926 709.014 926 738.5c0 101.293-81.253 183.807-182.39 185.474-0.633 0.015-1.15 0.02-1.904 0.022-0.402 0.003-0.804 0.004-1.206 0.004h-1C385.87 924 98.756 638.448 97.008 285.24c-0.005-0.58-0.008-1.16-0.008-1.74z" fill="#efb336" p-id="1911" data-spm-anchor-id="a313x.7781069.0.i5" class="selected"></path></svg>