<?xml version="1.0" standalone="no"?><!DOCTYPE svg PUBLIC "-//W3C//DTD SVG 1.1//EN" "http://www.w3.org/Graphics/SVG/1.1/DTD/svg11.dtd"><svg t="1640273249512" class="icon" viewBox="0 0 1024 1024" version="1.1" xmlns="http://www.w3.org/2000/svg" p-id="4583" xmlns:xlink="http://www.w3.org/1999/xlink" width="200" height="200"><defs><style type="text/css"></style></defs><path d="M921.6 0H102.4a102.4 102.4 0 0 0-102.4 102.4v819.2a102.4 102.4 0 0 0 102.4 102.4h819.2a102.4 102.4 0 0 0 102.4-102.4V102.4a102.4 102.4 0 0 0-102.4-102.4zM372.224 788.48H273.408a108.032 108.032 0 0 1-109.056-109.056V243.712a108.032 108.032 0 0 1 109.056-109.056h344.064a108.032 108.032 0 0 1 109.056 109.056V460.8a183.296 183.296 0 0 0-43.52-15.36v-204.8a67.584 67.584 0 0 0-65.536-65.536H273.408a67.072 67.072 0 0 0-65.024 68.608v435.712a67.072 67.072 0 0 0 65.024 65.536h123.392a181.248 181.248 0 0 0 17.92 43.52zM317.44 397.312h256a18.432 18.432 0 1 1 0 36.864h-256a18.432 18.432 0 1 1 0-36.864z m-18.432-118.784a18.432 18.432 0 0 1 18.432-18.432h109.568a18.432 18.432 0 0 1 0 36.864H317.44a18.432 18.432 0 0 1-18.432-18.432z m128 292.864H317.44a18.432 18.432 0 1 1 0-36.352h109.568a18.432 18.432 0 1 1 0 36.352z m243.712 317.952a188.416 188.416 0 1 1 188.928-188.416 188.416 188.416 0 0 1-188.928 188.416z" fill="#ea9518" p-id="4584" data-spm-anchor-id="a313x.7781069.0.i1" class="selected"></path><path d="M670.72 548.864a153.6 153.6 0 1 0 153.6 153.6 153.6 153.6 0 0 0-153.6-153.6z m89.6 106.496l-107.52 107.52a13.312 13.312 0 0 1-10.24 5.12 15.36 15.36 0 0 1-10.24-2.56l-51.2-56.32a12.8 12.8 0 0 1 17.92-17.92l45.056 45.056 98.304-98.816a12.8 12.8 0 1 1 17.92 17.92z" fill="#ea9518" p-id="4585" data-spm-anchor-id="a313x.7781069.0.i2" class="selected"></path></svg>