<?xml version="1.0" standalone="no"?><!DOCTYPE svg PUBLIC "-//W3C//DTD SVG 1.1//EN" "http://www.w3.org/Graphics/SVG/1.1/DTD/svg11.dtd"><svg t="1640843294511" class="icon" viewBox="0 0 1024 1024" version="1.1" xmlns="http://www.w3.org/2000/svg" p-id="2205" xmlns:xlink="http://www.w3.org/1999/xlink" width="200" height="200"><defs><style type="text/css"></style></defs><path d="M702.464 218.7264V172.032c-4.3008-19.6608-20.2752-7.5776-20.2752-7.5776l-111.4112 96.0512c-24.576 16.9984-1.6384 29.696-1.6384 29.696l109.568 95.232c21.9136 16.1792 23.552-8.6016 23.552-8.6016v-43.4176c111.4112-34.816 156.8768 104.6528 156.8768 104.6528 4.3008 7.5776 6.7584 0 6.7584 0 43.2128-209.1008-163.4304-219.3408-163.4304-219.3408z m0 0" fill="#FABE00" p-id="2206"></path><path d="M414.72 122.88H187.8016C151.9616 122.88 122.88 151.9616 122.88 187.8016v226.9184c0 35.6352 29.0816 64.9216 64.9216 64.9216h226.9184c35.6352 0 64.9216-29.0816 64.9216-64.9216V187.8016c0-35.84-29.2864-64.9216-64.9216-64.9216z" fill="#e16531" p-id="2207" data-spm-anchor-id="a313x.7781069.0.i1" class="selected"></path><path d="M414.72 544.3584H187.8016C151.9616 544.3584 122.88 573.6448 122.88 609.28v226.9184C122.88 872.0384 151.9616 901.12 187.8016 901.12h226.9184c35.6352 0 64.9216-29.0816 64.9216-64.9216V609.28c0-35.6352-29.2864-64.9216-64.9216-64.9216z" fill="#A4A4A4" p-id="2208"></path><path d="M836.1984 544.3584H609.28c-35.6352 0-64.9216 29.0816-64.9216 64.9216v226.9184c0 35.6352 29.0816 64.9216 64.9216 64.9216h226.9184c35.6352 0 64.9216-29.0816 64.9216-64.9216V609.28c0-35.6352-29.0816-64.9216-64.9216-64.9216z" fill="#e16531" p-id="2209" data-spm-anchor-id="a313x.7781069.0.i0" class="selected"></path></svg>